<?xml version="1.0" standalone="no"?>
<!DOCTYPE svg PUBLIC "-//W3C//DTD SVG 1.1//EN" "http://www.w3.org/Graphics/SVG/1.1/DTD/svg11.dtd" >
<!--
2016-3-9: Created with FontForge (http://fontforge.org)
-->
<svg xmlns="http://www.w3.org/2000/svg" xmlns:xlink="http://www.w3.org/1999/xlink" version="1.1">
<metadata>
Created by FontForge 20150618 at Wed Mar  9 15:05:52 2016
 By Hernandez, Gerardo
Copyright (c) 2016, Hernandez, Gerardo
</metadata>
<defs>
<font id="icons" horiz-adv-x="512" >
  <font-face 
    font-family="icons"
    font-weight="400"
    font-stretch="normal"
    units-per-em="512"
    panose-1="2 0 5 3 0 0 0 0 0 0"
    ascent="448"
    descent="-64"
    bbox="-0.126302 -203.59 736 448.635"
    underline-thickness="25.6"
    underline-position="-51.2"
    unicode-range="U+0020-F18C"
  />
    <missing-glyph />
    <glyph glyph-name="space" unicode=" " horiz-adv-x="200" 
 />
    <glyph glyph-name="uniF128" unicode="&#xf128;" 
d="M435.385 329.161l-11.5029 1.76855l-2.03516 11.4346c-7.74805 43.2471 -45.2334 74.6631 -89.1768 74.6631c-14.9912 0 -29.293 -3.58398 -42.4961 -10.5605l-11.4893 -6.11719l-8.49902 9.81738c-20.8486 24.0361 -50.9609 37.833 -82.7119 37.833
c-59.3984 0 -107.417 -46.5234 -109.302 -105.902l-0.368164 -11.9463l-11.5576 -3.23633c-39.0078 -10.8545 -66.2461 -46.8105 -66.2461 -87.2578c0 -46.2441 34.6592 -85.0264 80.6094 -90.0918l340.705 -0.59375c50.0059 0 90.6855 40.6729 90.6855 90.6855
c0 44.9258 -32.2148 82.5342 -76.6152 89.5039zM113.486 105.104h43.5615l30.3574 -97.0615l29.9697 97.0615h42.2979l-50.0801 -134.875h-45.1729zM269.886 105.104h117.951v-26.9658l-75.708 -78.9297h78.4658v-28.9795h-127.979v27.9629l74.9229 78.1104h-67.6523
v28.8018z" />
    <glyph glyph-name="uniF185" unicode="&#xf185;" 
d="M64.0088 432c-26.5215 0 -48.0049 -21.4873 -48.0088 -48.0039l0.0253906 -383.987c0 -13.2314 5.39355 -25.2373 14.0508 -33.8984c8.69531 -8.69629 20.6973 -14.085 33.9326 -14.085l383.979 -0.0253906c26.5 0.0253906 48.0088 21.4873 48.0088 48.0127
l-0.0214844 383.983c0.0214844 13.2646 -5.3418 25.292 -14.0293 33.9756c-8.65234 8.64844 -20.6416 14.0029 -33.8643 14.0029h-0.09375zM203.93 205.09c-21.7559 0 -39.4287 17.6768 -39.4287 39.4375c0 21.8027 17.6729 39.4238 39.4287 39.4238
c21.79 0 39.4326 -17.6211 39.4326 -39.4238c0 -21.7607 -17.6426 -39.4375 -39.4326 -39.4375zM224.598 111.476c6.32715 0 12.6504 2.93945 16.6357 8.81055l56.8018 83.6475c3.98535 5.87109 10.3164 8.81055 16.6357 8.81055
c6.26758 0 12.5352 -2.88379 16.5332 -8.66113l113.19 -163.503c9.22461 -13.3291 -0.298828 -31.5352 -16.5029 -31.5557l-262.478 -0.388672l0.107422 0.192383l-81.6729 -0.12793h-0.0380859c-16.1328 0 -25.6982 18.0518 -16.6279 31.4062l80.7344 118.869
c3.98535 5.86719 10.3125 8.80273 16.6357 8.80273c6.26758 0 12.5312 -2.88477 16.5332 -8.66113l26.9785 -38.9805c4.00195 -5.77344 10.2695 -8.66113 16.5332 -8.66113zM64.0127 448l384.068 -0.0253906c17.084 0 33.1221 -6.63867 45.1758 -18.6885
c12.0957 -12.0957 18.7432 -28.1895 18.7129 -45.29l0.0263672 -383.983c0 -35.2598 -28.7148 -63.9697 -64.0088 -64.0127l-383.979 0.0253906c-17.0713 0 -33.1436 6.66504 -45.2441 18.7695c-12.083 12.0869 -18.7393 28.1426 -18.7393 45.2139l-0.0253906 383.991
c0.00878906 35.29 28.7236 64 64.0127 64v0zM203.93 221.09c12.9238 0 23.4326 10.5137 23.4326 23.4375c0 12.9102 -10.5088 23.4238 -23.4326 23.4238c-12.9199 0 -23.4287 -10.5137 -23.4287 -23.4238c0 -12.9238 10.5088 -23.4375 23.4287 -23.4375zM224.598 95.4756
c11.9805 0 23.1465 5.91797 29.8711 15.8203l56.8018 83.6484c1.01074 1.48828 2.41016 1.7998 3.4043 1.7998c0.977539 0 2.35938 -0.306641 3.375 -1.76562l113.183 -163.517c1.16406 -1.68457 0.789062 -3.23828 0.259766 -4.24023
c-0.524414 -0.999023 -1.57812 -2.20215 -3.63086 -2.20215l-259.942 -0.383789c-0.789062 0.124023 -1.5918 0.1875 -2.40625 0.1875h-0.0214844l-81.6768 -0.12793c-2.04785 0 -3.11035 1.18652 -3.63965 2.18848c-0.524414 0.990234 -0.916992 2.53906 0.234375 4.22461
l80.7383 118.869c1.00684 1.48926 2.40625 1.80078 3.40039 1.80078c0.977539 0 2.36426 -0.302734 3.37988 -1.7666l26.9775 -38.9805c6.75 -9.74023 17.8477 -15.5557 29.6924 -15.5557z" />
    <glyph glyph-name="uniF174" unicode="&#xf174;" 
d="M466.142 448c25.2832 0 45.8584 -19.8408 45.875 -44.2373v-410.457c0 -24.3965 -20.5918 -44.2373 -45.8584 -44.2373c-3.32617 0 -6.6875 0.358398 -9.96289 1.05762l-145.354 30.999c-9.04199 1.92773 -17.0605 6.3291 -23.2871 12.6758
c-7.93359 -6.07324 -17.6924 -9.43457 -27.8262 -9.43457h-214.091c-25.1641 0 -45.6367 19.9434 -45.6367 44.4766v339.365c0 24.5332 20.4727 44.4766 45.6367 44.4766h214.091c10.1172 0 19.8926 -3.36035 27.8262 -9.41699
c6.22656 6.3291 14.2617 10.7314 23.2871 12.6592l145.338 31.0156c3.25781 0.699219 6.63574 1.05762 9.96289 1.05762zM306.098 306.398h-28.8486c-4.50391 0 -8.17188 -3.56543 -8.17188 -7.93262c0 -4.38477 3.66797 -7.9502 8.17188 -7.9502h28.8486
c4.50391 0 8.17188 3.56543 8.17188 7.9502c0 4.36719 -3.66797 7.93262 -8.17188 7.93262zM274.331 28.8594v35.0088c-20.25 1.4502 -36.2705 17.9814 -36.2705 38.0615s16.0205 36.6113 36.2705 38.0615v120.412c-20.25 1.4502 -36.2705 17.9648 -36.2705 38.0791
c0 20.0801 16.0205 36.6113 36.2705 38.0615v31.6641c0 7.84863 -6.53418 14.2285 -14.6035 14.2285h-214.091c-8.05273 0 -14.6035 -6.37988 -14.6035 -14.2285v-339.349c0 -7.84766 6.55078 -14.2451 14.6035 -14.2451h214.091c8.05273 0 14.6035 6.39746 14.6035 14.2451
zM277.249 93.9795h28.8486c4.50391 0 8.17188 3.54883 8.17188 7.93262c0 4.38477 -3.66797 7.93359 -8.17188 7.93359h-28.8486c-4.50391 0 -8.17188 -3.54883 -8.17188 -7.93359c0 -4.38379 3.66797 -7.93262 8.17188 -7.93262zM480.967 -6.69434v410.439
c0 8.76953 -9.00781 15.5938 -18.1523 13.6484l-145.354 -31.0156c-6.80664 -1.4502 -11.5664 -7.06348 -11.5664 -13.6484l0.204102 -36.0996c21.6162 0 39.1885 -17.1289 39.1885 -38.1641c0 -21.0527 -17.5723 -38.1816 -39.1885 -38.1816h-0.204102l0.204102 -120.208
c21.6162 0 39.1885 -17.1113 39.1885 -38.1641c0 -21.0352 -17.5723 -38.1641 -39.1885 -38.1641h-0.204102v-39.4268c0 -6.58496 4.77637 -12.1973 11.5664 -13.665l145.354 -30.999c9.38379 -1.97852 18.1523 4.87988 18.1523 13.6484z" />
    <glyph glyph-name="uniF121" unicode="&#xf121;" 
d="M287.833 -64c-69.4414 0 -116.081 53.248 -116.081 102.98c0 22.582 18.1182 38.9736 43.083 38.9736c25.6553 0 44.9951 -17.1016 44.9951 -39.7793c0 -5.87793 2.58008 -19.5586 26.46 -19.5586c27.6885 0 28.0098 15.708 28.0098 16.377
c0 4.71094 -0.389648 14.084 -0.839844 24.959c-0.662109 15.6738 -1.47461 35.1777 -1.47461 50.0186c0 40.0107 10.7178 68.9766 33.7373 91.1426c6.34863 6.11719 14.2744 11.5645 22.665 17.3262c22.6436 15.5518 46.0664 31.6416 46.0664 62.9355
c0 57.2207 -47.6572 78.5469 -77.6943 78.5469c-35.6357 0 -71.5371 -43.1309 -71.5371 -62.9072c0 -22.0088 -19.6602 -37.9902 -46.7354 -37.9902c-27.0742 0 -46.7354 15.9814 -46.7354 37.9902c0 88.9785 87.5723 150.985 166.175 150.985
c79.4287 0 163.84 -56.9414 163.84 -162.461c0 -85.9141 -40.1885 -112.947 -66.7852 -130.84c-5.20215 -3.50195 -10.1104 -6.80664 -13.8789 -10.0078c-20.5205 -17.415 -23.3467 -32.9521 -23.3467 -47.1523c0 -7.14746 0.327148 -15.3594 0.668945 -24.043
c0.402344 -10.2266 0.867188 -21.8047 0.867188 -33.7373c-0.00683594 -41.8545 -35.4307 -103.759 -111.459 -103.759zM235.035 98.7617c-27.4297 0 -49.7393 22.3096 -49.7393 49.7383c0 27.4229 22.3096 49.7393 49.7393 49.7393
c27.4229 0 49.7324 -22.3164 49.7324 -49.7393c0 -27.4355 -22.3096 -49.7383 -49.7324 -49.7383zM45.541 4.04102c-14.582 0 -27.751 9.19629 -32.7822 22.8906c-6.62207 18.0762 2.69043 38.167 20.7598 44.8027l64.54 23.668
c3.87012 1.41992 7.91895 2.14355 12.0215 2.14355c14.582 0 27.75 -9.20898 32.7744 -22.8965c6.62891 -18.0771 -2.68262 -38.1748 -20.7529 -44.7969l-64.5391 -23.668c-3.87793 -1.42676 -7.91895 -2.14355 -12.0215 -2.14355zM124.108 219.361
c-6.55273 0 -12.957 1.84277 -18.5273 5.33887l-58.2451 36.5156c-16.3018 10.2197 -21.2578 31.8057 -11.0312 48.1143c6.42383 10.2539 17.4824 16.3701 29.5928 16.3701c6.55371 0 12.957 -1.84277 18.5283 -5.33203l58.2451 -36.5225
c16.3086 -10.2197 21.2578 -31.8047 11.0381 -48.1143c-6.4375 -10.2539 -17.4961 -16.3701 -29.6006 -16.3701v0zM103.321 122.17c-1.18066 0 -2.38867 0.0683594 -3.59766 0.18457l-68.376 7.03125c-9.27734 0.956055 -17.626 5.46777 -23.5107 12.6973
c-5.8916 7.24316 -8.6084 16.3369 -7.64551 25.6143c1.8291 17.8584 16.752 31.334 34.7061 31.334c1.18848 0 2.38281 -0.0615234 3.58398 -0.18457l68.3896 -7.03125c9.27734 -0.955078 17.627 -5.46777 23.5117 -12.7041
c5.88477 -7.24316 8.60156 -16.3359 7.64551 -25.6064c-1.83594 -17.8525 -16.7598 -31.335 -34.707 -31.335v0z" />
    <glyph glyph-name="uniF123" unicode="&#xf123;" 
d="M494.306 311.994h-113.923c-6.10449 0 -11.0381 4.93359 -11.0381 11.0312v113.937c0 6.09766 4.93359 11.0381 11.0381 11.0381h6.84863c65.2305 0 118.112 -52.8818 118.112 -118.119v-6.85547c0 -6.09766 -4.93359 -11.0312 -11.0381 -11.0312zM17.6943 311.994
h113.93c6.09766 0 11.0381 4.93359 11.0381 11.0312v113.937c0 6.09766 -4.94043 11.0381 -11.0381 11.0381h-6.85547c-65.2305 0 -118.119 -52.8818 -118.119 -118.119v-6.85547c0 -6.09766 4.94727 -11.0312 11.0449 -11.0312zM17.6943 85.3047h113.93
c6.09766 0 11.0381 -4.93359 11.0381 -11.0312v-113.937c0 -6.09766 -4.94043 -11.0449 -11.0381 -11.0449h-6.85547c-65.2305 0 -118.119 52.8887 -118.119 118.126v6.85547c0 6.09766 4.94727 11.0312 11.0449 11.0312zM494.306 85.3047h-113.923
c-6.10449 0 -11.0381 -4.93359 -11.0381 -11.0312v-113.937c0 -6.09766 4.93359 -11.0449 11.0381 -11.0449h6.84863c65.2305 0 118.112 52.8887 118.112 118.126v6.85547c0 6.09766 -4.93359 11.0312 -11.0381 11.0312zM346.89 82.1523
c-12.2344 0 -22.1953 9.9541 -22.1953 22.2021c0 12.2422 9.96094 22.1963 22.1953 22.1963c12.248 0 22.209 -9.9541 22.209 -22.1963c0 -12.2412 -9.96094 -22.2021 -22.209 -22.2021zM346.89 263.5c-12.2344 0 -22.1953 9.9541 -22.1953 22.2031
c0 12.248 9.96094 22.2021 22.1953 22.2021c12.248 0 22.209 -9.9541 22.209 -22.2021c0 -12.249 -9.96094 -22.2031 -22.209 -22.2031zM165.549 82.1523c-12.2412 0 -22.2021 9.9541 -22.2021 22.2021c0 12.2422 9.96094 22.1963 22.2021 22.1963
s22.2021 -9.9541 22.2021 -22.1963c0 -12.2412 -9.96094 -22.2021 -22.2021 -22.2021zM165.549 263.5c-12.2412 0 -22.2021 9.9541 -22.2021 22.2031c0 12.248 9.96094 22.2021 22.2021 22.2021s22.2021 -9.9541 22.2021 -22.2021
c0 -12.249 -9.96094 -22.2031 -22.2021 -22.2031zM325.818 341.61c0 -14.6885 -11.9092 -26.5977 -26.5977 -26.5977h-86.4414c-14.6885 0 -26.5977 11.9092 -26.5977 26.5977v79.792c0 14.6885 11.9092 26.5977 26.5977 26.5977h86.4414
c14.6885 0 26.5977 -11.9092 26.5977 -26.5977v-79.792zM325.818 155.429c0 -14.6885 -11.9092 -26.5977 -26.5977 -26.5977h-86.4414c-14.6885 0 -26.5977 11.9092 -26.5977 26.5977v79.792c0 14.6885 11.9092 26.5977 26.5977 26.5977h86.4414
c14.6885 0 26.5977 -11.9092 26.5977 -26.5977v-79.792zM512 155.429c0 -14.6885 -11.9092 -26.5977 -26.5977 -26.5977h-86.4414c-14.6885 0 -26.5977 11.9092 -26.5977 26.5977v79.792c0 14.6885 11.9092 26.5977 26.5977 26.5977h86.4414
c14.6885 0 26.5977 -11.9092 26.5977 -26.5977v-79.792zM139.637 155.429c0 -14.6885 -11.9092 -26.5977 -26.5977 -26.5977h-86.4414c-14.6885 0 -26.5977 11.9092 -26.5977 26.5977v79.792c0 14.6885 11.9092 26.5977 26.5977 26.5977h86.4414
c14.6885 0 26.5977 -11.9092 26.5977 -26.5977v-79.792zM325.818 -24.1035c0 -14.6885 -11.9092 -26.5977 -26.5977 -26.5977h-86.4414c-14.6885 0 -26.5977 11.9092 -26.5977 26.5977v79.792c0 14.6885 11.9092 26.5977 26.5977 26.5977h86.4414
c14.6885 0 26.5977 -11.9092 26.5977 -26.5977v-79.792z" />
    <glyph glyph-name="uniF16A" unicode="&#xf16a;" 
d="M402.753 299.706h-293.506c-8.88574 0 -16.1562 -5.57617 -16.1562 -14.4619v-46.3076l164.254 -41.3652l161.564 41.2949v46.3779c0 8.88086 -7.27051 14.4619 -16.1562 14.4619zM257.345 171.99l161.564 41.29v-127.302
c0 -8.88574 -7.27051 -14.3496 -16.1562 -14.3496h-293.506c-8.88574 0 -16.1562 5.46387 -16.1562 14.3496v127.377zM256 438.69c136.024 0 246.69 -110.666 246.69 -246.69s-110.666 -246.69 -246.69 -246.69s-246.69 110.666 -246.69 246.69
s110.666 246.69 246.69 246.69zM256 448c-141.387 0 -256 -114.613 -256 -256c0 -141.382 114.613 -256 256 -256s256 114.618 256 256c0 141.387 -114.613 256 -256 256z" />
    <glyph glyph-name="uniF18C" unicode="&#xf18c;" 
d="M5.6582 298.349c9.03613 -5.86816 115.635 -81.5186 121.172 -85.2871c5.53809 -3.76855 11.0762 -7.97656 23.9209 -0.219727c12.8555 7.74707 87.4463 55.5488 93.8232 59.3965c9.87598 5.97852 7.19727 15.2441 -1.44922 20.792
c-8.63672 5.53809 -73.9814 47.1816 -79.9688 50.9502c-5.97754 3.76855 -17.7129 6.20801 -31.2275 -1.3291c-13.5254 -7.52734 -44.6826 -25.2803 -51.4297 -29.3389c-5.73828 -3.45898 -5.77832 -6.26758 -2.40918 -8.98633
c2.44824 -1.96973 8.63672 -7.08691 10.8457 -8.85645c2.21875 -1.7793 5.9873 -2.87891 13.9639 1.97949c7.9668 4.87793 28.8193 16.793 34.3574 20.1113c5.53711 3.31934 12.6543 5.08887 20.9912 -0.469727c8.77637 -5.83789 38.7949 -24.0605 45.2227 -28.499
c6.41699 -4.41797 4.53809 -9.46582 -2.43945 -13.5146c-6.34766 -3.67773 -43.8525 -26.6396 -50.4297 -30.1074c-7.8877 -4.15918 -15.3643 -4.88867 -24.001 1.51855c-8.64648 6.4375 -91.0449 63.5752 -96.8018 67.5645
c-5.76855 3.98828 -9.08691 5.10742 -15.5146 1.78906c-6.41699 -3.3291 -9.52637 -5.54785 -11.9648 -6.87793c-2.41895 -1.30859 -4.8584 -5.29785 3.33887 -10.6152zM325.143 353.067c-6.19727 -4.12891 -39.2646 -26.1396 -52.1094 -33.9072
c-12.8545 -7.73633 -18.3926 -3.53809 -23.9307 0.230469c-5.53809 3.75781 -80.2383 52.8389 -89.2646 58.6963c-8.19727 5.30859 -5.76855 9.30664 -3.3291 10.626c2.43945 1.33984 5.53809 3.53906 11.9658 6.87793c6.41699 3.31836 9.74609 2.21875 15.5039 -1.76953
s63.2744 -40.2344 72.4609 -45.8418c7.22754 -4.38867 6.81738 -3.55859 14.375 1.75879c0 0 19.332 13.0947 26.6494 17.9932c7.29688 4.89844 16.0039 19.1123 -0.30957 30.0186c-5.56836 3.72852 -37.8955 24.9902 -46.9316 30.8477
c-8.19727 5.31738 -5.75781 9.30664 -3.31934 10.6357c2.43945 1.3291 5.53809 3.53906 11.9551 6.86719c6.42773 3.31934 9.75684 1.98926 15.5146 -1.7793c5.85742 -3.82812 79.0693 -49.1309 88.2754 -54.7188c8.77637 -5.30762 4.78809 -8.2168 1.21973 -10.4756
c-3.56934 -2.23926 -6.56738 -4.72852 -8.90723 -6.12793c-2.30859 -1.42871 -5.05762 -3.57812 -11.4551 1.14941l-6.39746 4.74902s1.3291 -4.98828 -0.179688 -10.5664c-1.46973 -5.54785 -4.30859 -10.2764 -11.7861 -15.2637zM447.205 249.008
c-9.72559 -6.85742 -44.9727 -31.1777 -51.1201 -35.8359c-6.1377 -4.6582 -12.7744 -7.9668 -27.7285 1.99902c-14.9541 9.95605 -76.9307 48.0117 -87.5664 55.1582c-10.6357 7.14746 -17.7832 14.7842 0 24.751c17.7734 9.97559 63.9648 39.2139 73.4316 45.1924
c9.46582 5.9873 19.7822 11.9648 38.5449 0.499023c18.7725 -11.4551 78.5889 -44.5225 92.874 -52.999c14.2842 -8.47656 48.1807 -39.5439 5.64746 -70.7725c-42.543 -31.2373 -81.748 -58.4971 -91.2148 -65.1445
c-9.46582 -6.62695 -15.9531 -9.78613 -31.7275 -0.319336c-15.793 9.46582 -87.4053 57.3076 -93.7129 61.6357c-6.31738 4.32812 -16.1143 7.97656 -29.249 -1.48926c-13.1143 -9.47656 -82.8975 -54.1592 -90.874 -59.6475
c-7.97656 -5.47754 -17.7734 -10.7949 -29.9082 -1.49902c-12.126 9.31641 -106.159 75.4307 -114.136 81.4287c-7.97656 5.97754 -10.0664 6.5166 -10.0664 35.1055c0 1.43945 -0.399414 4.59863 2.25977 2.2793s113.476 -81.9082 122.442 -88.0654
c8.97559 -6.14746 17.4424 -7.47754 29.2383 0.5c11.7949 7.97656 79.6992 51.5293 89.5547 57.7676c14.1748 8.95605 21.2617 12.1748 36.5459 0.549805c15.2842 -11.626 84.3975 -54.499 93.0439 -60.1465c8.63672 -5.64844 16.6133 -5.80762 26.9092 2.15918
c10.2959 7.97656 69.623 49.5107 75.9307 54.3379c6.31738 4.80859 11.6348 23.7607 -4.48828 32.5674c-16.1143 8.80664 -77.4199 45.1924 -84.7373 49.3408c-7.29688 4.1582 -13.4541 5.81836 -23.251 -0.649414c-9.80566 -6.47754 -39.7139 -23.5908 -46.6816 -28.5791
c-6.9873 -4.97754 -4.48828 -9.63574 1.14941 -13.125c5.64844 -3.48828 43.873 -26.8994 49.6904 -30.7275c5.79785 -3.8291 13.9551 -8.80664 26.0703 -0.330078c12.1348 8.47656 23.9307 15.4541 29.5684 19.6025c5.64746 4.1582 7.9873 5.6377 13.625 2.49902
c5.6377 -3.15918 8.11621 -4.88867 11.4551 -6.9873c5.05859 -3.18848 5.41797 -6.1875 -1.51953 -11.0557z" />
    <glyph glyph-name="uniF104" unicode="&#xf104;" 
d="M172.697 128.64l-22.0156 22.1191l109.491 109.875l109.517 -109.875l-22.041 -22.1191l-87.4756 48.1543z" />
    <glyph glyph-name="uniF14F" unicode="&#xf14f;" 
d="M256 448c141.388 0 256 -114.612 256 -256c0 -141.402 -114.612 -256 -256 -256s-256 114.598 -256 256c0 141.388 114.612 256 256 256zM396.815 190.117c20.8711 -0.180664 33.1445 7.24414 40.7637 15.3906c-12.0615 -2.04785 -29.4697 0.0605469 -38.7314 3.91504
c19.2305 1.59668 32.2109 10.3154 37.2256 22.1816c-6.94238 -4.26172 -28.3857 -8.89941 -40.2969 -4.47266c-0.602539 2.78613 -1.23535 5.45215 -1.86719 7.80078c-9.03613 33.25 -40.0264 60.0244 -72.4785 56.7715c2.62012 1.08496 5.28516 2.04883 7.93555 2.95215
c3.58398 1.26465 24.5312 4.69824 21.2178 12.0771c-2.75488 6.52051 -28.4004 -4.9248 -33.1738 -6.40039c6.35449 2.39453 16.8955 6.49023 18.0254 13.8242c-9.75879 -1.35547 -19.3057 -5.94824 -26.6992 -12.6494c2.63477 2.86133 4.68262 6.37012 5.10449 10.1494
c-25.9912 -16.6094 -41.2305 -50.1152 -53.5186 -82.6279c-9.65332 9.35156 -18.1914 16.7461 -25.8711 20.8271c-21.5498 11.5342 -47.2998 23.582 -87.748 38.6104c-1.23535 -13.3574 6.64062 -31.1562 29.2588 -42.9932
c-4.89355 0.663086 -13.8838 -0.8125 -21.0371 -2.5293c2.90625 -15.3301 12.4688 -27.9492 38.2803 -34.0479c-11.8213 -0.783203 -17.9199 -3.44922 -23.4473 -9.24707c5.37598 -10.6758 18.5225 -23.2051 42.0742 -20.6152
c-26.2168 -11.3242 -10.6758 -32.2861 10.6924 -29.1533c-36.4121 -37.5869 -93.877 -34.877 -126.841 -3.37402c86.1221 -117.308 273.213 -69.376 301.132 43.6104z" />
    <glyph glyph-name="uniF12B" unicode="&#xf12b;" 
d="M209.297 100.216l163.123 163.087l70.9561 -70.9561l68.624 255.653l-255.545 -68.6963l70.8838 -70.8838l-163.086 -163.159zM401.211 128.388v-110.389h-320.962v321.034h127.08v80.249h-156.745c-33.127 0 -50.584 -38.5215 -50.584 -71.6123v-361.159
c0 -33.0908 17.457 -48.7246 50.584 -48.7246h361.122c33.0918 0 69.8271 15.6709 69.8271 48.7617v141.84h-80.3223z" />
    <glyph glyph-name="uniF135" unicode="&#xf135;" 
d="M157.392 29.2354h-70.4473v222.136h70.4473v-222.136zM124.959 278.443h-0.416016c-24.6982 0 -40.7314 17.0605 -40.7314 38.2334c0 21.5654 16.4492 38.0879 41.6611 38.0879c25.1631 0 40.7061 -16.5713 41.1963 -38.1611
c0 -21.1484 -16.0332 -38.1602 -41.71 -38.1602zM428.188 29.2354h-75.8076v117.15c0 29.6426 -10.0361 49.8125 -36.668 49.8125c-20.3408 0 -31.9189 -13.6348 -37.2061 -26.7793c-2.03125 -4.72363 -1.95801 -11.2842 -1.95801 -17.8438v-122.34h-73.9961
s1.00391 200.424 0 222.136h73.9961v-33.8535c5.38574 15.0049 27.4639 36.374 66.6289 36.374c48.416 0 85.0107 -31.4043 85.0107 -99.0605v-125.596zM512 46.1494v291.701c0 60.6328 -49.5156 110.149 -110.149 110.149h-291.701
c-60.6084 0 -110.149 -49.5137 -110.149 -110.149v-291.701c0 -60.6357 49.54 -110.149 110.149 -110.149h291.701c60.6328 0 110.149 49.5156 110.149 110.149zM487.522 46.1494c0 -47.0771 -38.5938 -85.6719 -85.6719 -85.6719h-291.701
c-47.0537 0 -85.6719 38.5967 -85.6719 85.6719v291.701c0 47.0752 38.6172 85.6719 85.6719 85.6719h291.701c47.0771 0 85.6719 -38.5938 85.6719 -85.6719v-291.701z" />
    <glyph glyph-name="uniF102" unicode="&#xf102;" 
d="M326.195 107.188l-22.0928 -22.042l-109.901 109.491l109.901 109.517l22.0928 -22.041l-48.1279 -87.4756z" />
    <glyph glyph-name="uniF15A" unicode="&#xf15a;" 
d="M446.836 233.071v21.2783h-47.875v4.68164c0 5.96289 -2.07422 11.2764 -8.34082 11.2764h-18.2568v9.44824c0 27.9424 -22.0547 43.7471 -50.0029 43.7471h-190.055c-27.9482 0 -47.1943 -15.8047 -47.1943 -43.7471v-9.44824h-20.2881
c-6.2666 0 -16.9482 -5.31348 -16.9482 -11.2764v-4.68164h-47.875v-21.2783h47.875v1.6123c0 -5.95801 10.6816 -12.251 16.9482 -12.251h20.2881v-31.917h-20.2881c-6.2666 0 -16.9482 -4.05273 -16.9482 -10.0273v-0.611328h-47.875v-26.5977h47.875v2.8623
c0 -5.97363 10.6816 -13.501 16.9482 -13.501h20.2881v-31.917h-20.2881c-6.2666 0 -16.9482 -2.80859 -16.9482 -8.7666v3.44141h-47.875v-31.916h47.875v4.10645c0 -5.95312 10.6816 -20.0654 16.9482 -20.0654h20.2881v-31.917h-20.2881
c-6.2666 0 -16.9482 3.77734 -16.9482 -2.18652v-3.13281h-47.875v-26.5977h47.875v5.3623c0 -5.94727 10.6816 -10.6816 16.9482 -10.6816h18.1182c1.51074 -10.6387 4.31445 -14.2139 8.13379 -19.5645c2.5791 -5.19727 6.80371 -10.3359 12.4258 -13.124
c8.18652 -5.68066 18.1074 -9.86719 28.8047 -9.86719h190.055c24.0547 0 44.2158 15.958 49.3701 42.5557h18.8896c6.27148 0 8.34082 4.73438 8.34082 10.6816v-5.3623h47.875v26.5977h-47.875v3.13281c0 5.96387 -2.07422 2.18652 -8.34082 2.18652h-18.2568v31.917
h18.2568c6.27148 0 8.34082 14.1123 8.34082 20.0654v-4.10645h47.875v31.916h-47.875v-3.44141c0 5.95801 -2.07422 8.76172 -8.34082 8.76172h-18.2568v31.916h18.2568c6.27148 0 8.34082 7.52734 8.34082 13.501v-2.86133h47.875v26.5977h-47.875v0.611328
c0 5.97363 -2.07422 10.0273 -8.34082 10.0273h-18.2568v31.917h18.2568c6.27148 0 8.34082 6.29297 8.34082 12.25v-1.61133h47.875v0.00488281zM313.85 -6.30469h-175.543v265.974h99.5537c2.66504 10.6387 8.70801 12.9004 15.7617 12.9004
c9.5166 0 17.2461 -6.65527 17.2461 -16.1826c0 -9.5166 -7.72949 -17.1387 -17.2461 -17.1387c-7.04297 0 -13.0967 -0.862305 -15.7617 9.77637h-88.915v-250.016h148.945v255.336h15.959v-260.649zM355.847 393.917v-27.6934
c19.7031 -0.367188 38.1777 -8.23438 52.1738 -22.2568c13.9473 -13.9746 21.7988 -32.5234 22.166 -52.3271h27.7627c-0.760742 56.0459 -46.1416 101.506 -102.103 102.277zM355.905 448v-27.6777c70.4404 -0.765625 127.604 -58.0674 128.38 -128.678h27.7148
c-0.776367 85.8779 -70.3662 155.584 -156.095 156.355z" />
    <glyph glyph-name="uniF17A" unicode="&#xf17a;" 
d="M467.994 240.433h-168.016v164.481c0 23.8047 -19.7051 43.0859 -44.0049 43.0859c-24.2822 0 -43.9697 -19.2812 -43.9697 -43.0859v-164.499h-168.034c-24.2822 0.0175781 -43.9697 -19.2637 -43.9697 -43.0518c0 -23.7871 19.6875 -43.0859 43.9697 -43.0859h168.034
v-164.517c0 -23.7871 19.6875 -43.0859 43.9697 -43.0859c24.2998 0 44.0049 19.2988 44.0049 43.0859v164.517h168.016c24.2832 0 43.9883 19.2988 43.9883 43.0859c0.0175781 23.7881 -19.7051 43.0693 -43.9883 43.0693z" />
    <glyph glyph-name="uniF140" unicode="&#xf140;" 
d="M275.296 344.793h-80.0146c-9.14648 0 -23.291 -11.1006 -23.291 -27.6699v-41.1621h103.306v-103.208h-103.306v-236.753h-96.3057v236.753h-75.6846v103.208h75.6846v40.2021c0 69.3691 55.5176 131.837 119.597 131.837h80.0146v-103.207z" />
    <glyph glyph-name="uniF119" unicode="&#xf119;" 
d="M256.051 430.131c-131.558 0 -238.208 -106.547 -238.208 -238.028c0 -131.559 106.65 -238.26 238.208 -238.26c131.456 0 238.106 106.701 238.106 238.26c0 131.456 -106.65 238.028 -238.106 238.028zM256.051 448v0c141.159 0 255.949 -114.79 255.949 -255.897
c0 -141.261 -114.79 -256.103 -255.949 -256.103c-141.209 0 -256.051 114.842 -256.051 256.103c0 141.107 114.842 255.897 256.051 255.897z" />
    <glyph glyph-name="uniF159" unicode="&#xf159;" 
d="M409.079 410.829c65.4258 -55.7656 73.2588 -154.01 17.5107 -219.427c-39.6289 -46.4893 -100.659 -63.7266 -156.169 -49.8857l-38.3564 -45.0049l-68.2246 -7.89258l1.15234 -70.8184l-69.3672 -9.2334l8.75488 -61.8838l-96.418 -10.6836l-7.96191 99.6348
l165.684 194.398c-23.0742 52.8809 -15.9316 116.445 23.9951 163.285c55.748 65.417 153.993 73.25 219.4 17.5107zM311.006 295.748c19.9258 -16.9814 49.8086 -14.6172 66.79 5.30762c16.9736 19.9258 14.6006 49.8438 -5.31543 66.8164
c-19.9092 16.9639 -49.8262 14.5752 -66.8076 -5.35059c-16.9727 -19.9248 -14.5752 -49.8086 5.33301 -66.7734z" />
    <glyph glyph-name="uniF176" unicode="&#xf176;" 
d="M491.339 240.855c11.6016 -1.53516 20.6611 -11.6865 20.6953 -23.0674v-38.5078c0 -11.3799 -9.05957 -21.5146 -20.6611 -23.084l-47.9775 -6.34668c-4.40234 -16.1064 -10.9365 -31.4961 -19.501 -45.9297l29.2939 -37.5869
c7.06348 -9.05957 6.15918 -22.5039 -2.09863 -30.5908l-27.9297 -27.2139c-7.89941 -7.69434 -22.5205 -8.63281 -31.3926 -2.0127l-1.39941 1.02344v-0.0341797l-37.2285 27.4521c-14.792 -8.30859 -30.5908 -14.6729 -47.0557 -18.9385l-6.53418 -46.7656
c-1.57031 -11.3291 -11.96 -20.2178 -23.6982 -20.2178h-39.4463c-11.7217 0 -22.334 9.09375 -23.8691 20.2344l-6.55176 46.749c-16.5674 4.31641 -32.3486 10.6807 -47.0215 18.9727l-38.457 -28.4932c-4.4873 -3.36133 -10.4756 -4.98145 -16.2256 -4.57227
c-5.7666 0.307617 -11.2949 2.66211 -15.3555 6.60254l-27.8955 27.2305c-8.25781 8.07031 -9.21289 21.498 -2.13281 30.5742l29.2949 37.5869c-8.54785 14.3828 -15.0996 29.8066 -19.5186 45.9297l-47.9775 6.34668c-11.6523 1.62109 -20.6953 11.79 -20.6953 23.1016
v38.5078c0 11.3799 9.07715 21.5146 20.6787 23.0674l47.9766 6.36328c4.40234 16.124 10.9541 31.5303 19.5186 45.9639l-29.2939 37.5527c-7.04688 9.11133 -6.1084 22.5215 2.09766 30.5742l27.9307 27.2129c7.86523 7.69531 22.4697 8.70215 31.376 2.09863
l24.6709 -18.1875l-0.0175781 9.57227h0.0341797v-9.57227l13.9395 -10.3223c14.7588 8.34375 30.5576 14.707 47.0557 18.9385l6.55176 46.7832c1.55273 11.2773 11.9434 20.1494 23.6641 20.1494h39.6514c11.7383 0 22.1289 -8.87207 23.6982 -20.1836l6.53516 -46.7832
c16.5322 -4.26562 32.3311 -10.6123 46.9873 -18.9043l38.4912 28.4932c4.48633 3.30957 10.3555 4.8623 16.1572 4.50391c5.85156 -0.34082 11.3281 -2.66113 15.3887 -6.56836l27.9307 -27.2305c8.25781 -8.03613 9.22949 -21.4805 2.13184 -30.5742l-29.3281 -37.5693
c8.56445 -14.4004 15.1338 -29.8408 19.5352 -45.9639zM433.961 179.11l47.0723 6.22754l-0.0341797 26.4111l-47.0215 6.20996c-9.46875 1.2793 -17.335 8.20703 -19.5352 17.2832c-3.95898 16.499 -10.6299 32.1611 -19.7578 46.5615
c-4.99902 7.93359 -4.50391 18.2383 1.29688 25.6436l28.7314 36.8184l-19.2285 18.7334l-37.791 -28.0146c-7.47266 -5.52832 -18.3242 -6.04004 -26.3262 -1.24512c-14.6553 8.85449 -30.6934 15.2871 -47.584 19.1768
c-9.33301 2.13281 -16.4307 9.77637 -17.7275 18.9893l-6.43164 45.8613h-27.1963l-6.43262 -45.8613c-1.31348 -9.24707 -8.42773 -16.8906 -17.7607 -19.0234c-16.8398 -3.83887 -32.8604 -10.2715 -47.6016 -19.1426
c-7.98535 -4.81152 -18.8359 -4.2998 -26.3096 1.22754l-27.1787 20.0986c-0.630859 0.392578 -1.2627 0.801758 -1.85938 1.24609l-8.83789 6.56836l-19.126 -18.6484l28.7314 -36.8359c5.78418 -7.4043 6.2959 -17.6924 1.2793 -25.626
c-9.09375 -14.3828 -15.748 -30.0625 -19.7744 -46.5957c-2.2002 -9.05957 -10.0322 -15.9863 -19.5186 -17.249l-47.0557 -6.22754l0.0341797 -26.3936l47.0049 -6.21094c9.48633 -1.24512 17.3174 -8.18945 19.5352 -17.2324
c4.02637 -16.5156 10.6807 -32.1777 19.7744 -46.5771c4.99902 -7.91699 4.50488 -18.2051 -1.2627 -25.6094l-28.7314 -36.8535l19.0752 -18.6143l37.9443 27.9297c3.99316 2.96875 8.99219 4.62402 14.0586 4.62402c4.33398 0 8.56543 -1.17773 12.2334 -3.37793
c14.6562 -8.82129 30.7285 -15.3047 47.7041 -19.2461c9.26465 -2.14941 16.3789 -9.77637 17.6416 -18.9893l6.43262 -45.8779h27.1963l6.43164 45.8779c1.2627 9.23047 8.39453 16.8564 17.6934 19.0068c16.8223 3.88965 32.8945 10.3389 47.7207 19.2285
c7.96777 4.75977 18.7852 4.24805 26.2578 -1.28027l26.9912 -20.0127c0.666016 -0.375977 1.29688 -0.801758 1.89355 -1.24609l8.99219 -6.65332l19.126 18.6309l-28.7656 36.8535c-5.76758 7.4209 -6.2959 17.709 -1.2627 25.626
c9.09375 14.3828 15.7305 30.0449 19.7568 46.5605c2.20117 9.07715 10.0322 16.0039 19.502 17.25zM266.484 300.332c53.8467 -5.4082 94.333 -49.1543 94.3164 -101.806c0 -56.3887 -47.0391 -102.268 -104.895 -102.268c-3.53223 0 -7.06348 0.188477 -10.4932 0.511719
c-53.7266 5.375 -94.2139 49.1035 -94.2139 101.756c0 56.3711 47.0732 102.232 104.912 102.232c3.49707 0 6.96094 -0.170898 10.373 -0.426758zM255.923 126.492c40.7432 0 73.877 32.332 73.8936 72.0166c0 37.0918 -28.5264 67.9053 -66.3174 71.71
c-2.33789 0.170898 -4.89746 0.290039 -7.37109 0.290039c-40.7432 0 -73.877 -32.3145 -73.877 -72c0 -37.0742 28.4932 -67.8711 66.2676 -71.6582c2.50781 -0.22168 5.0332 -0.358398 7.4043 -0.358398z" />
    <glyph glyph-name="uniF18B" unicode="&#xf18b;" 
d="M464.308 326.451c16.5889 -16.1533 16.8447 -42.291 0.742188 -58.0352c0 0 -0.0517578 0 -0.0517578 -0.102539h0.0517578l-236.416 -231.501l-16.0254 -15.9482l-170.829 -41.9844l42.8027 167.552l5.01758 4.76172l247.604 242.381v0.0517578
c16.0518 15.7695 42.8037 15.5137 59.2637 -0.640625zM107.853 16.5117l87.7314 21.5557l-93.4404 91.4434l-21.6055 -84.7363z" />
    <glyph glyph-name="uniF14C" unicode="&#xf14c;" 
d="M256 448c141.388 0 256 -114.612 256 -256c0 -141.402 -114.612 -256 -256 -256s-256 114.598 -256 256c0 141.388 114.612 256 256 256zM200.765 87.6123v160.633h-50.9443v-160.633h50.9443zM177.333 267.821c18.5674 0 30.1328 12.3184 30.1475 27.6025
c-0.34668 15.6162 -11.5801 27.5879 -29.7861 27.5879c-18.2217 0 -30.1328 -11.9414 -30.1328 -27.543c0 -15.3145 11.5947 -27.6475 29.4395 -27.6475h0.332031zM396.604 87.6123h-0.015625v90.835c0 48.9111 -26.458 71.6494 -61.4697 71.6494
c-28.3105 0 -44.2881 -15.4502 -48.1729 -26.3076v24.4707h-53.5195c0.722656 -15.6758 0 -160.633 0 -160.633h53.5195v88.4561c0 4.75879 -0.0605469 9.4873 1.40039 12.9199c3.83984 9.50293 12.1973 19.3506 26.9102 19.3506
c19.2754 0 26.5332 -14.5918 26.5332 -36.0352v-84.7061h54.8145z" />
    <glyph glyph-name="uniF151" unicode="&#xf151;" 
d="M273.619 142.141c17.2568 13.7783 29.9668 3.59863 29.9814 -13.418l0.0908203 -44.5889c0.0146484 -21.6396 -12.333 -34.0029 -32 -15.9629l-1.43066 -7.1377l-15.3604 -0.241211l0.0751953 114.508l18.7031 0.0302734zM289.762 80.8662v50.085
c0 3.70508 -3.7041 6.73145 -8.2373 6.73145c-4.50195 0 -8.14648 -3.02637 -8.14648 -6.73145v-50.085c0 -3.6748 3.64453 -6.70117 8.14648 -6.70117c4.5332 0 8.2373 3.02637 8.2373 6.70117zM225.054 91.8887v53.625h18.6885v-85.3838l-15.0439 0.0302734
l0.0605469 11.0527c-4.05078 -8.6582 -20.1787 -15.6455 -28.582 -9.5918c-4.50195 3.25195 -4.38184 8.94434 -4.81836 13.7939c-0.241211 2.77051 -0.0605469 8.83887 -0.0605469 16.9863l-0.0605469 53.0967h18.583l0.120117 -53.9707
c0 -7.36328 -0.420898 -11.6406 0.0458984 -13.0557c2.65039 -8.13184 9.47168 -3.70508 11.0381 0.436523c0.466797 1.37012 0.0292969 5.24023 0.0292969 12.9805zM251.633 240.173c-4.54785 0 -8.28223 4.09668 -8.28223 9.14062v47.2246
c0 5.01465 3.73438 9.11133 8.28223 9.11133c4.5625 0 8.28223 -4.09668 8.28223 -9.11133v-47.2246c0 -5.05957 -3.71973 -9.14062 -8.28223 -9.14062zM198.912 160.422l-22.4678 0.0302734l0.0302734 -100.383h-18.748v100.653l-18.7031 0.0605469v14.5918
l59.8887 -0.0605469v-14.8926zM256 448c141.388 0 256 -114.612 256 -256c0 -141.402 -114.612 -256 -256 -256s-256 114.598 -256 256c0 141.388 114.612 256 256 256zM288.091 316.974h-0.015625v-59.8594c0 -7.62012 0.105469 -12.71 0.316406 -15.2842
c0.255859 -2.54492 0.858398 -5.01465 1.82227 -7.37891c0.948242 -2.33398 2.43945 -4.26172 4.50195 -5.67773c1.98828 -1.43066 4.56348 -2.1377 7.65039 -2.1377c2.71094 0 5.08984 0.722656 7.21289 2.22852c2.04785 1.49023 3.78027 3.73438 5.22559 6.70117
l-0.361328 -7.33398h20.8867v88.7422h-16.4443v-69.0752c0 -3.73438 -3.05664 -6.77637 -6.82129 -6.77637c-3.73535 0 -6.86719 3.04199 -6.86719 6.77637v69.0752h-17.1064zM236.815 316.039c-3.71973 -2.90625 -6.28027 -6.74609 -7.68066 -11.5049
c-1.43066 -4.80371 -2.16797 -11.4746 -2.16797 -19.9824v-23.4766c0 -7.78613 0.391602 -13.6133 1.1748 -17.5137c0.797852 -3.88574 2.09277 -7.18359 3.92969 -9.93848c1.80762 -2.71094 4.36719 -4.80469 7.68066 -6.14453
c3.34277 -1.40039 7.34863 -2.04785 12.0771 -2.04785c4.27637 0 8.04102 0.783203 11.3535 2.37891c3.23828 1.58105 5.90332 4.05078 7.99707 7.39453c2.1377 3.34277 3.49316 6.91211 4.11035 10.7822c0.618164 3.83984 0.933594 9.87793 0.933594 18.1152v22.4375
c0 6.50586 -0.300781 11.3398 -1.00879 14.5166c-0.692383 3.16309 -1.95703 6.26465 -3.87012 9.26172c-1.83691 2.98145 -4.53223 5.40625 -8.01074 7.27344c-3.44922 1.88184 -7.5752 2.81543 -12.3936 2.81543c-5.7373 0 -10.4658 -1.47559 -14.125 -4.36719z
M182.121 351.925h-21.3232l24.7568 -58.4434l0.0302734 -68.0508h19.6973v68.0811l23.2803 58.293h-21.5488l-12.3486 -43.3096zM389.526 70.4297v95.2773c0 22.8594 -19.832 41.5479 -44.0322 41.5479h-181.112c-24.2598 0 -44.0771 -18.6885 -44.0771 -41.5479v-95.2773
c0 -22.874 19.833 -41.5615 44.0771 -41.5615h181.112c24.2148 0 44.0322 18.6875 44.0322 41.5615zM348.205 89.9766l14.0498 0.0449219c6.38477 -38.0088 -47.3301 -44.2725 -47.3301 -0.0449219v26.6084c0 7.95117 0.798828 14.2461 2.39453 18.8545
c1.56641 4.60742 4.30664 8.02637 7.86133 10.5713c11.3242 8.17676 33.792 5.64648 36.0654 -10.3457c0.75293 -5.05957 0.948242 -13.9141 0.948242 -22.7393v-12.1074h-32.1045v-11.1133v-8.59863v-0.90332c0 -4.1709 3.44824 -7.58984 7.67969 -7.58984h2.72559
c4.18652 0 7.64941 3.41895 7.64941 7.58984v7.8457c0 0.708008 0.0605469 1.35547 0.0605469 1.92773zM330.405 125.907l-0.0898438 -10.2852h17.7539l0.196289 10.2852c0 4.60742 -3.76465 8.32715 -8.37305 8.32715h-1.15918
c-4.57812 0 -8.32812 -3.71973 -8.32812 -8.32715z" />
    <glyph glyph-name="uniF11A" unicode="&#xf11a;" 
d="M256.051 430.131c-131.532 0 -238.182 -106.598 -238.208 -238.028c0 -131.584 106.65 -238.233 238.208 -238.233c131.456 0 238.106 106.649 238.106 238.233c0 131.431 -106.65 238.028 -238.106 238.028zM256.051 448v0c141.159 0 255.949 -114.842 255.949 -255.923
c0 -141.235 -114.79 -256.077 -255.949 -256.077c-141.209 0 -256.051 114.842 -256.051 256.077c0 141.106 114.842 255.923 256.051 255.923zM102.426 191.77c0 85.708 69.4795 155.188 155.188 155.188c85.707 0 155.187 -69.4795 155.187 -155.188
c0 -85.707 -69.4795 -155.188 -155.187 -155.188c-85.708 0 -155.188 69.4805 -155.188 155.188z" />
    <glyph glyph-name="uniF10B" unicode="&#xf10b;" 
d="M411.443 290.662l40.6523 -40.7041l-201.855 -202.547l-201.779 202.547l40.6016 40.7041l161.178 -88.7549z" />
    <glyph glyph-name="uniF17C" unicode="&#xf17c;" 
d="M397.298 165.046h-282.606c-4.42578 0 -8.00098 -3.54492 -8.00098 -7.91992c0 -4.37402 3.58594 -7.92969 8.00098 -7.92969l282.606 -0.00976562c4.41602 0 8.00098 3.55469 8.00098 7.92969c0 4.37402 -3.5752 7.92969 -8.00098 7.92969zM397.298 231.709
l-282.606 0.0107422c-4.42578 0 -8.00098 -3.54492 -8.00098 -7.91992c0 -4.39453 3.58594 -7.92871 8.00098 -7.92871l282.606 -0.0205078c4.41602 0 8.00098 3.55469 8.00098 7.92871c0 4.375 -3.5752 7.92969 -8.00098 7.92969zM397.298 31.6982l-282.606 0.00976562
c-4.42578 0 -8.00098 -3.55469 -8.00098 -7.92969c0 -4.37402 3.58594 -7.91895 8.00098 -7.91895l282.606 -0.0107422c4.41602 0 8.00098 3.55566 8.00098 7.92969c0 4.375 -3.5752 7.91992 -8.00098 7.91992zM397.298 98.3613l-282.606 0.0205078
c-4.42578 0 -8.00098 -3.54492 -8.00098 -7.92969c0 -4.37402 3.58594 -7.91895 8.00098 -7.91895l282.606 -0.0205078c4.41602 0 8.00098 3.55469 8.00098 7.92969c0.0107422 4.36426 -3.5752 7.91895 -8.00098 7.91895zM481.389 296.774l-178.754 135.541
c-13.5332 10.2646 -29.6592 15.6846 -46.6445 15.6846c-16.9863 0 -33.1016 -5.41992 -46.6357 -15.6846l-178.753 -135.541c-19.1582 -14.5371 -30.6016 -37.5879 -30.6016 -61.6533v-217.274c0 -42.6494 34.6582 -77.3496 77.2471 -77.3496h357.506
c42.5986 0 77.2471 34.7002 77.2471 77.3496v217.274c0 24.0654 -11.4434 47.1162 -30.6113 61.6533zM495.997 17.8467c0 -33.9521 -27.4248 -61.4795 -61.2539 -61.4795h-357.496c-33.8291 0 -61.2549 27.5273 -61.2549 61.4795v217.274
c0 19.2803 9.00586 37.4346 24.332 49.0625l178.753 135.53c10.9209 8.28809 23.9219 12.4268 36.9229 12.4268c13.0107 0 26.002 -4.13867 36.9229 -12.4268l178.743 -135.53c15.3262 -11.6279 24.3311 -29.7822 24.3311 -49.0625v-217.274z" />
    <glyph glyph-name="uniF14E" unicode="&#xf14e;" 
d="M420.992 184.032c-35.3701 -143.194 -272.511 -203.973 -381.681 -55.2705c41.7832 -39.9229 114.629 -43.3496 160.77 4.30859c-27.0723 -3.96582 -46.7773 22.5928 -13.5605 36.9365c-29.8877 -3.28027 -46.5078 12.6309 -53.3369 26.1426
c7 7.34277 14.7354 10.7207 29.7158 11.7246c-32.7266 7.73438 -44.8438 23.7432 -48.5146 43.1543c9.05664 2.20312 20.4385 4.0625 26.6553 3.20605c-28.6631 14.9561 -38.625 37.5244 -37.083 54.4629c51.2803 -19.0439 83.9092 -34.3174 111.227 -48.9551
c9.71777 -5.18945 20.5615 -14.5645 32.7998 -26.3867c15.5684 41.2197 34.8809 83.6641 67.8281 104.739c-0.514648 -4.79688 -3.10938 -9.25195 -6.4873 -12.875c9.375 8.49414 21.4922 14.3193 33.8779 16.0332c-1.44434 -9.30176 -14.7852 -14.4912 -22.8623 -17.502
c6.07031 1.86035 38.5762 16.376 42.1016 8.10254c4.18555 -9.375 -22.373 -13.708 -26.9014 -15.2988c-3.40234 -1.15039 -6.73145 -2.37402 -10.085 -3.74512c41.1719 4.1123 80.4092 -29.8135 91.8896 -71.9395c0.807617 -3.01074 1.56641 -6.36426 2.37402 -9.88965
c15.0781 -5.60547 42.2979 0.245117 51.085 5.6543c-6.36426 -15.0293 -22.8623 -26.0684 -47.1924 -28.0996c11.7246 -4.87109 33.8037 -7.54004 49.0771 -4.94531c-9.66797 -10.3779 -25.2119 -19.7773 -51.6963 -19.5576zM401.851 -64h-291.701
c-60.7285 0 -110.149 49.4209 -110.149 110.149v291.701c0 60.7285 49.4209 110.149 110.149 110.149h291.701c60.7285 0 110.149 -49.4209 110.149 -110.149v-291.701c0 -60.7539 -49.3955 -110.149 -110.149 -110.149zM110.149 423.522
c-47.2422 0 -85.6719 -38.4297 -85.6719 -85.6719v-291.701c0 -47.2422 38.4297 -85.6719 85.6719 -85.6719h291.701c47.2422 0 85.6719 38.4297 85.6719 85.6719v291.701c0 47.2422 -38.4297 85.6719 -85.6719 85.6719h-291.701z" />
    <glyph glyph-name="uniF105" unicode="&#xf105;" 
d="M273.92 302.413c-35.1748 -6.375 -77.542 3.60938 -103.117 14.4121c-25.5479 10.7783 -115.865 46.3359 -129.075 51.5586c-13.1836 5.19727 -6.80957 17.9971 13.5684 21.1719c20.4033 3.19922 188.979 30.8223 197.837 32
c23.9619 3.19922 33.9707 3.19922 54.7324 -3.2002c20.7871 -6.375 140.288 -44.3398 151.911 -48.7422c11.5713 -4.37793 10.1377 -17.127 -10.0098 -21.9648c-21.5811 -5.24805 -160.666 -42.4453 -175.847 -45.2354zM156.032 245.684
c12.1855 -7.70605 39.5771 -47.54 39.5771 -86.3496c0 -38.7578 0.410156 -168.652 0.410156 -182.63c0 -14.0029 -12.3906 -37.5557 -32 -19.6094c-19.584 17.9961 -126.694 116.326 -133.889 121.907c-7.19336 5.63184 -11.5967 31.2061 -12.3643 46.7705
c-0.819336 15.5654 -0.819336 175.847 -0.819336 185.421c0 9.60059 13.9775 20.3779 29.5684 10.0098c15.5898 -10.3682 97.5098 -67.917 109.517 -75.5195zM297.088 236.108c12.6973 3.8916 170.649 65.5361 181.043 69.5303
c10.3682 3.99316 25.959 -5.60645 25.165 -31.5654c-0.793945 -25.9834 -0.40918 -173.465 -0.40918 -183.065c0 -35.5586 -24.7812 -65.126 -42.7783 -72.2939c-17.9707 -7.19434 -157.056 -72.3457 -170.239 -78.7461
c-13.1846 -6.37402 -43.1621 4.01953 -43.1621 34.7646c0 30.7715 0.383789 173.85 0.383789 193.844c0.0517578 19.9678 24.0391 59.5459 49.9971 67.5322z" />
    <glyph glyph-name="uniF11F" unicode="&#xf11f;" 
d="M440.955 448c39.2393 0 71.0449 -31.8057 71.0449 -71.0449v-342.597c0 -36.0381 -27.3066 -65.7197 -61.4404 -70.3555v333.811h-102.399v-334.507h-40.96v238.934h-102.4v-238.934h-40.96v143.36h-102.399v-142.855c-34.1338 4.0625 -61.4404 34.0723 -61.4404 70.54
v342.604c0 39.2393 31.8125 71.0449 71.0449 71.0449h369.91zM425.021 363.384l19.2578 34.3311l-32.6309 12.6562l3.67871 -12.834l-153.682 -43.377l-38.4199 -84.623l-66.2393 -3.59766l-100.734 -83.5654c-5.05176 -4.1709 -5.74805 -11.6455 -1.56348 -16.7041
c2.33496 -2.82617 5.74805 -4.28711 9.14062 -4.28711c2.66309 0 5.35938 0.907227 7.57129 2.74414l94.6992 78.5742l72.793 3.93262l39.7988 87.6748l143.128 40.4141z" />
    <glyph glyph-name="uniF165" unicode="&#xf165;" 
d="M-0.0244141 417.455l58.5713 -58.5957l15.2842 15.2607c5.08691 5.08691 12.7412 10.1982 17.8281 17.8281c45.8545 35.6807 99.3389 56.0029 157.934 56.0029c66.2256 0 129.908 -20.3711 178.306 -68.793c43.3105 -43.2861 68.7686 -104.449 73.8799 -155.365h-78.9668
c-2.54395 25.4824 -20.3721 71.3115 -50.9658 101.881c-33.0879 33.1133 -76.3984 48.3975 -122.277 48.3975c-35.6553 0 -68.7686 -12.7168 -96.7939 -30.5693c-7.60645 -5.0625 -17.7803 -12.7168 -25.459 -20.3467l-15.2842 -15.3096l56.0029 -56.0029h-168.083
l0.0244141 165.612v0zM509.457 -25.8008l-58.5713 58.5957l-15.2852 -15.2852c-5.11035 -5.11035 -12.7412 -10.1973 -17.8281 -17.8281c-45.8779 -35.6797 -99.3867 -56.0029 -157.957 -56.0029c-66.2012 0 -129.884 20.3711 -178.281 68.7686
c-43.3105 43.3105 -68.7686 104.449 -73.9043 155.391h78.9912c2.51953 -25.5068 20.3711 -73.8564 50.9648 -101.882c33.1133 -33.1133 76.4238 -48.3975 122.253 -48.3975c35.7051 0 68.7695 12.6924 96.8193 30.5693c7.63086 5.11133 17.8281 12.7412 25.458 20.3955
l15.3096 15.3096l-56.0283 56.0029h170.675v-165.588l-2.61523 -0.0488281v0z" />
    <glyph glyph-name="uniF122" unicode="&#xf122;" 
d="M0 31.1436v347.188h40.8457v-347.188h-40.8457zM46.2236 412.097c0 -11.5254 -9.14258 -20.8652 -20.4229 -20.8652s-20.4229 9.33984 -20.4229 20.8652s9.14258 20.8652 20.4229 20.8652c11.2734 0 20.4229 -9.33984 20.4229 -20.8652zM238.267 317.062h-13.6152
v-176.998h13.6152v-108.921h-176.998v98.751v16.7188v167.264v16.7256v52.4463l13.8125 -2.7168c0.0751953 -0.0136719 10.79 -1.80371 22.1855 -1.80371c14.249 0 24.6504 2.70996 31.4648 7.8291c4.02344 3.02246 8.08105 7.37891 13.3564 12.4375
c19.334 18.5166 45.1211 45.9102 96.1787 49.2051v-130.938zM469.725 31.1436v347.188h40.8457v-347.188h-40.8457zM471.154 412.097c0 -11.5254 9.14941 -20.8652 20.4229 -20.8652c11.2871 0 20.4229 9.33984 20.4229 20.8652s-9.13574 20.8652 -20.4229 20.8652
c-11.2734 0 -20.4229 -9.33984 -20.4229 -20.8652zM285.919 317.062h-6.80664v130.938c51.0566 -3.29492 76.6328 -30.6885 95.96 -49.2051c5.27539 -5.05859 9.12207 -9.41504 13.1387 -12.4375c6.82031 -5.11914 16.8008 -7.8291 31.0488 -7.8291
c11.3965 0 19.5586 1.79004 19.6406 1.80371l10.4014 2.7168v-52.4463v-16.7256v-167.264v-16.7188v-98.751h-170.189v108.921h6.80664v176.998z" />
    <glyph glyph-name="uniF117" unicode="&#xf117;" 
d="M255.972 448c141.397 0 256.028 -114.574 256.028 -256.028c0 -141.298 -114.631 -255.972 -256.028 -255.972c-141.341 0 -255.972 114.674 -255.972 255.972c0 141.454 114.631 256.028 255.972 256.028zM221.255 56.1064v271.829h-68.0527v-271.829h68.0527z
M358.713 56.1064v271.829h-67.9824v-271.829h67.9824z" />
    <glyph glyph-name="uniF18A" unicode="&#xf18a;" 
d="M256 72.5332l-170.666 170.667h103.014l-0.614258 204.8h136.533v-204.8h102.399zM392.533 72.5332h68.2666v-136.533h-409.6v68.2666v68.2666h68.2666v-68.2666h273.066v68.2666z" />
    <glyph glyph-name="uniF111" unicode="&#xf111;" 
d="M505.498 219.469c8.67773 -8.26855 8.67773 -21.6064 0.101562 -29.9521l-5.73438 -5.35059c-8.65234 -8.29395 -22.707 -8.29395 -31.4111 0l-212.429 202.522l-212.479 -202.522c-8.65332 -8.29395 -22.7334 -8.29395 -31.3857 0l-5.68359 5.40234
c-8.62695 8.24316 -8.62695 21.6572 0 29.9004l233.216 222.336c4.50586 4.30078 10.4961 6.34863 16.3848 6.19531c5.8623 0.0771484 11.7246 -1.94531 16.2305 -6.19531zM256 311.68l179.2 -121.983v-197.044c0 -29.6953 -31.7949 -56.6523 -57.1396 -56.6523h-70.8604
v153.6h-102.4v-153.6h-84.0186c-25.3701 0 -43.9814 26.957 -43.9814 56.6523v197.044zM442.957 313.651l-76.7998 58.0098v54.6299h76.7998v-112.64z" />
    <glyph glyph-name="uniF148" unicode="&#xf148;" 
d="M507.878 371.2l-254.412 -312.269l-249.344 312.269h503.756z" />
    <glyph glyph-name="uniF10A" unicode="&#xf10a;" 
d="M410.188 -63.9746h-308.377c-56.1416 0 -101.812 45.6445 -101.812 101.812v308.326c0 56.167 45.6699 101.837 101.812 101.837h308.403c56.1152 0 101.785 -45.6699 101.785 -101.837v-308.352c0 -56.1416 -45.6699 -101.786 -101.812 -101.786zM101.812 429.491
c-45.9268 0 -83.3027 -37.376 -83.3027 -83.3027v-308.352c0 -45.9521 37.376 -83.3281 83.3027 -83.3281h308.403c45.9258 0 83.3018 37.376 83.3018 83.3281v308.326c0 45.9268 -37.376 83.3027 -83.3018 83.3027h-308.403v0.0253906zM38.4004 194.534l60.2109 56.8574
l94.3359 -96.0254l227.789 254.413l52.8633 -52.4541l-281.472 -383.053z" />
    <glyph glyph-name="uniF115" unicode="&#xf115;" 
d="M347.878 267.546c0 -61.082 137.882 -27.5967 137.882 -115.559c0 -79.4111 -105.036 -167.987 -229.094 -167.987c-89.293 0 -231.066 68.8896 -231.066 194.918c0 165.453 179.2 231.092 272.41 231.066c93.209 0 121.446 -40.0391 121.446 -60.3906
c0 -30.208 -71.5781 -42.0098 -71.5781 -82.0479zM133.401 73.5742c26.8037 0 48.5635 21.7861 48.5635 48.5381c0 26.7773 -21.7598 48.5625 -48.5635 48.5625c-26.8027 0 -48.5889 -21.708 -48.5889 -48.5625c0 -26.8037 21.7607 -48.5381 48.5889 -48.5381z
M137.344 211.431c26.8037 0 48.5889 21.7344 48.5635 48.5625c0 26.752 -21.7598 48.5381 -48.5635 48.5381c-26.8281 0 -48.5625 -21.7344 -48.5625 -48.5381c0 -26.8281 21.7344 -48.5625 48.5625 -48.5625zM259.431 18.458c26.8281 0 48.5625 21.6826 48.5625 48.5371
c0 26.7773 -21.7344 48.5889 -48.5625 48.5889c-26.8037 0 -48.5635 -21.7344 -48.5635 -48.5889c0 -26.7773 21.7598 -48.5371 48.5635 -48.5371zM275.2 274.432c26.8281 0 48.5371 21.7344 48.5371 48.5635c0 26.7773 -21.709 48.5635 -48.5371 48.5635
c-26.8037 0 -48.5635 -21.7598 -48.5635 -48.5635c0 -26.8291 21.7598 -48.5635 48.5635 -48.5635zM373.657 89.3184c26.8809 0 48.5889 21.7852 48.5889 48.5381c0 26.8281 -21.6826 48.5879 -48.5889 48.5879c-26.7773 0 -48.5371 -21.7344 -48.5371 -48.5879
c0 -26.7529 21.709 -48.5381 48.5371 -48.5381z" />
    <glyph glyph-name="uniF110" unicode="&#xf110;" 
d="M483.892 71.9355c11.5967 -23.2441 37.0684 -135.936 -63.5908 -135.936h-337.05c-74.0098 0 -106.649 59.6738 -64.8193 135.373c16.1543 29.209 148.89 311.808 174.004 346.675c25.1641 34.8164 80.7676 41.7021 112.665 -8.57617
c31.9492 -50.3037 167.193 -314.342 178.791 -337.536zM248.679 70.0674c-22.5791 0 -41.0879 -18.5088 -41.0879 -41.0879s18.4824 -41.165 41.0879 -41.165c22.6045 0 41.1641 18.5596 41.1641 41.165c0 22.5537 -18.5596 41.0879 -41.1641 41.0879zM288.358 263.476
h-0.0253906v58.1631c0 25.5742 -14.5664 38.6299 -39.6543 38.6299c-25.0625 0 -39.6035 -13.0303 -39.6035 -38.6299v-58.1631c0 -7.52637 0.998047 -15.54 1.99707 -23.6035l15.5645 -117.351c2.02246 -14.5918 9.01172 -18.5859 22.0674 -18.5859
s20.0703 4.01953 22.1182 18.5859l15.5391 117.351c0.999023 8.06348 1.99707 16.0771 1.99707 23.6035z" />
    <glyph glyph-name="uniF116" unicode="&#xf116;" 
d="M303.155 299.725c0 -28.6973 -23.1934 -51.8906 -51.8652 -51.8906c-28.6211 0 -51.8662 23.1934 -51.8662 51.8906c0 28.5957 23.2451 51.8145 51.8662 51.8145c28.6719 0 51.8652 -23.2188 51.8652 -51.8145zM296.551 387.2c0 23.3994 18.9688 42.3682 42.3672 42.3682
c23.3994 0 42.3682 -18.9688 42.3682 -42.3682s-18.9688 -42.3682 -42.3682 -42.3682c-23.3984 0 -42.3672 18.9688 -42.3672 42.3682zM396.263 286.285c0 23.3984 18.9688 42.3672 42.3682 42.3672c23.3984 0 42.3672 -18.9688 42.3672 -42.3672
c0 -23.3994 -18.9688 -42.3682 -42.3672 -42.3682c-23.3994 0 -42.3682 18.9688 -42.3682 42.3682zM395.622 104.755c0 23.3994 18.9688 42.3682 42.3682 42.3682s42.3682 -18.9688 42.3682 -42.3682c0 -23.3984 -18.9688 -42.3682 -42.3682 -42.3682
s-42.3682 18.9697 -42.3682 42.3682zM297.165 1.25488c0 23.3984 18.9688 42.3672 42.3682 42.3672c23.3984 0 42.3672 -18.9688 42.3672 -42.3672c0 -23.3994 -18.9688 -42.3682 -42.3672 -42.3682c-23.3994 0 -42.3682 18.9688 -42.3682 42.3682zM111.206 6.34863
c0 23.3994 18.9688 42.3682 42.3682 42.3682s42.3682 -18.9688 42.3682 -42.3682s-18.9688 -42.3682 -42.3682 -42.3682s-42.3682 18.9688 -42.3682 42.3682zM14.0801 105.396c0 23.3984 18.9688 42.3682 42.3682 42.3682s42.3682 -18.9697 42.3682 -42.3682
c0 -23.3994 -18.9688 -42.3682 -42.3682 -42.3682s-42.3682 18.9688 -42.3682 42.3682zM15.3604 288.18c0 23.3984 18.9688 42.3672 42.3672 42.3672c23.3994 0 42.3682 -18.9688 42.3682 -42.3672c0 -23.3994 -18.9688 -42.3682 -42.3682 -42.3682
c-23.3984 0 -42.3672 18.9688 -42.3672 42.3682zM0 196.173c0 9.55762 7.74805 17.3057 17.3057 17.3057s17.3057 -7.74805 17.3057 -17.3057s-7.74805 -17.3057 -17.3057 -17.3057s-17.3057 7.74805 -17.3057 17.3057zM477.44 196.173
c0 9.54297 7.73633 17.2803 17.2793 17.2803c9.54395 0 17.2803 -7.7373 17.2803 -17.2803c0 -9.54395 -7.73633 -17.2803 -17.2803 -17.2803c-9.54297 0 -17.2793 7.73633 -17.2793 17.2803zM238.413 430.72c0 9.54395 7.73633 17.2803 17.2793 17.2803
c9.54395 0 17.2803 -7.73633 17.2803 -17.2803c0 -9.54297 -7.73633 -17.2793 -17.2803 -17.2793c-9.54297 0 -17.2793 7.73633 -17.2793 17.2793zM238.387 -42.8545c0 9.54395 7.7373 17.2803 17.2803 17.2803c9.54395 0 17.2803 -7.73633 17.2803 -17.2803
c0 -9.54297 -7.73633 -17.2803 -17.2803 -17.2803c-9.54297 0 -17.2803 7.7373 -17.2803 17.2803zM115.047 387.892c0 23.3984 18.9688 42.3672 42.3672 42.3672c23.3994 0 42.3682 -18.9688 42.3682 -42.3672c0 -23.3994 -18.9688 -42.3682 -42.3682 -42.3682
c-23.3984 0 -42.3672 18.9688 -42.3672 42.3682zM199.398 93.9004c0 28.6445 23.2207 51.8662 51.8652 51.8662s51.8662 -23.2217 51.8662 -51.8662s-23.2217 -51.8652 -51.8662 -51.8652s-51.8652 23.2207 -51.8652 51.8652zM302.95 195.533
c0 28.6445 23.2217 51.8652 51.8662 51.8652s51.8652 -23.2207 51.8652 -51.8652s-23.2207 -51.8662 -51.8652 -51.8662s-51.8662 23.2217 -51.8662 51.8662zM93.9775 195.533c0 28.6582 23.2324 51.8906 51.8916 51.8906c28.6582 0 51.8906 -23.2324 51.8906 -51.8906
c0 -28.6592 -23.2324 -51.8916 -51.8906 -51.8916c-28.6592 0 -51.8916 23.2324 -51.8916 51.8916zM303.155 299.725c0 -28.6973 -23.1934 -51.8906 -51.8652 -51.8906c-28.6211 0 -51.8662 23.1934 -51.8662 51.8906c0 28.5957 23.2451 51.8145 51.8662 51.8145
c28.6719 0 51.8652 -23.2188 51.8652 -51.8145zM296.551 387.2c0 23.3994 18.9688 42.3682 42.3672 42.3682c23.3994 0 42.3682 -18.9688 42.3682 -42.3682s-18.9688 -42.3682 -42.3682 -42.3682c-23.3984 0 -42.3672 18.9688 -42.3672 42.3682zM396.263 286.285
c0 23.3984 18.9688 42.3672 42.3682 42.3672c23.3984 0 42.3672 -18.9688 42.3672 -42.3672c0 -23.3994 -18.9688 -42.3682 -42.3672 -42.3682c-23.3994 0 -42.3682 18.9688 -42.3682 42.3682zM395.622 104.755c0 23.3994 18.9688 42.3682 42.3682 42.3682
s42.3682 -18.9688 42.3682 -42.3682c0 -23.3984 -18.9688 -42.3682 -42.3682 -42.3682s-42.3682 18.9697 -42.3682 42.3682zM297.165 1.25488c0 23.3984 18.9688 42.3672 42.3682 42.3672c23.3984 0 42.3672 -18.9688 42.3672 -42.3672
c0 -23.3994 -18.9688 -42.3682 -42.3672 -42.3682c-23.3994 0 -42.3682 18.9688 -42.3682 42.3682zM111.206 6.34863c0 23.3994 18.9688 42.3682 42.3682 42.3682s42.3682 -18.9688 42.3682 -42.3682s-18.9688 -42.3682 -42.3682 -42.3682
s-42.3682 18.9688 -42.3682 42.3682zM14.0801 105.396c0 23.3984 18.9688 42.3682 42.3682 42.3682s42.3682 -18.9697 42.3682 -42.3682c0 -23.3994 -18.9688 -42.3682 -42.3682 -42.3682s-42.3682 18.9688 -42.3682 42.3682zM15.3604 288.18
c0 23.3984 18.9688 42.3672 42.3672 42.3672c23.3994 0 42.3682 -18.9688 42.3682 -42.3672c0 -23.3994 -18.9688 -42.3682 -42.3682 -42.3682c-23.3984 0 -42.3672 18.9688 -42.3672 42.3682zM0 196.173c0 9.55762 7.74805 17.3057 17.3057 17.3057
s17.3057 -7.74805 17.3057 -17.3057s-7.74805 -17.3057 -17.3057 -17.3057s-17.3057 7.74805 -17.3057 17.3057zM477.44 196.173c0 9.54297 7.73633 17.2803 17.2793 17.2803c9.54395 0 17.2803 -7.7373 17.2803 -17.2803c0 -9.54395 -7.73633 -17.2803 -17.2803 -17.2803
c-9.54297 0 -17.2793 7.73633 -17.2793 17.2803zM238.413 430.72c0 9.54395 7.73633 17.2803 17.2793 17.2803c9.54395 0 17.2803 -7.73633 17.2803 -17.2803c0 -9.54297 -7.73633 -17.2793 -17.2803 -17.2793c-9.54297 0 -17.2793 7.73633 -17.2793 17.2793z
M238.387 -42.8545c0 9.54395 7.7373 17.2803 17.2803 17.2803c9.54395 0 17.2803 -7.73633 17.2803 -17.2803c0 -9.54297 -7.73633 -17.2803 -17.2803 -17.2803c-9.54297 0 -17.2803 7.7373 -17.2803 17.2803zM115.047 387.892c0 23.3984 18.9688 42.3672 42.3672 42.3672
c23.3994 0 42.3682 -18.9688 42.3682 -42.3672c0 -23.3994 -18.9688 -42.3682 -42.3682 -42.3682c-23.3984 0 -42.3672 18.9688 -42.3672 42.3682zM199.398 93.9004c0 28.6445 23.2207 51.8662 51.8652 51.8662s51.8662 -23.2217 51.8662 -51.8662
s-23.2217 -51.8652 -51.8662 -51.8652s-51.8652 23.2207 -51.8652 51.8652zM302.95 195.533c0 28.6445 23.2217 51.8652 51.8662 51.8652s51.8652 -23.2207 51.8652 -51.8652s-23.2207 -51.8662 -51.8652 -51.8662s-51.8662 23.2217 -51.8662 51.8662zM93.9775 195.533
c0 28.6582 23.2324 51.8906 51.8916 51.8906c28.6582 0 51.8906 -23.2324 51.8906 -51.8906c0 -28.6592 -23.2324 -51.8916 -51.8906 -51.8916c-28.6592 0 -51.8916 23.2324 -51.8916 51.8916z" />
    <glyph glyph-name="uniF167" unicode="&#xf167;" 
d="M257.905 61.7764c-34.3027 0 -62.8877 -27.9502 -62.8877 -62.8877c0 -34.3027 27.9502 -62.8887 62.8877 -62.8887c34.3027 0 62.8887 27.9502 62.8887 62.8887c-0.634766 34.3027 -28.5859 62.8877 -62.8887 62.8877zM502.472 61.7764
c-34.3027 0 -62.8887 -27.9502 -62.8887 -62.8877c0 -34.3027 27.9502 -62.8887 62.8887 -62.8887c34.3027 0 62.8877 27.9502 62.8877 62.8887c0 34.3027 -27.9502 62.8877 -62.8877 62.8877zM572.982 71.9404h-361.449c-7.62207 0 -14.6104 5.08203 -17.7861 12.0693
l-122.601 326.512h-52.0898c-10.1631 0 -19.0566 8.25781 -19.0566 19.0566s8.25781 19.0566 19.0566 19.0566h65.4297c7.62305 0 14.6104 -5.08105 17.7871 -12.0693l122.6 -326.511h348.745c10.1631 0 19.0566 -8.25781 19.0566 -19.0576
c0 -10.7988 -9.52832 -19.0566 -19.6924 -19.0566zM615.543 395.911h-465.627s84.4863 -224.874 85.7568 -229.32c6.35156 -19.0576 14.6104 -22.8691 30.4912 -22.8691h311.266s29.8555 104.179 62.8877 203.911c1.27051 3.17578 3.17676 14.6104 3.17676 17.7861
c0 15.8809 -12.0693 30.4922 -27.9512 30.4922z" />
    <glyph glyph-name="uniF112" unicode="&#xf112;" 
d="M256 448c141.408 0 256 -114.592 256 -256c0 -141.376 -114.592 -256 -256 -256c-141.376 0 -256 114.624 -256 256c0 141.408 114.624 256 256 256zM291.104 32l0.768555 224h-74.8477l-0.800781 -224h74.8799zM292.16 320l0.223633 63.6484l-74.9756 -7.58398
l-0.224609 -56.0645h74.9766z" />
    <glyph glyph-name="uniF12D" unicode="&#xf12d;" 
d="M442.402 66.4062h-81.6816v-78.4043l-178.057 127.403l174.814 127.419v-76.748l76.7832 1.62109s40.6699 1.19434 63.624 83.0801c-26.5898 112.981 -127.812 197.223 -248.969 197.223c-102.365 0 -190.48 -60.2627 -231.44 -147.098
c8.12305 9.31836 20.1045 16.6738 38.0068 16.6738h81.6133v78.4219l178.091 -127.42l-174.78 -127.42v76.7832l-76.7822 -1.62109s-40.7041 -1.21191 -63.625 -83.1318c26.5898 -112.999 127.812 -197.188 248.917 -197.188c102.4 0 190.516 60.2451 231.458 147.098
c-8.08887 -9.33594 -20.0869 -16.6914 -37.9727 -16.6914z" />
    <glyph glyph-name="uniF186" unicode="&#xf186;" 
d="M511.97 383.991l0.0214844 -383.979c0 -35.2637 -28.7061 -63.9785 -64.0078 -64.0127l-383.975 0.0253906c-17.0713 0 -33.1436 6.66016 -45.248 18.7646c-12.0791 12.0879 -18.7354 28.1475 -18.7354 45.2139l-0.0253906 383.987
c0.00878906 35.2988 28.7188 64.0088 64.0088 64.0088l384.076 -0.0302734c17.0752 0 33.1182 -6.63867 45.167 -18.6875c12.1006 -12.1006 18.748 -28.1904 18.7178 -45.291zM447.991 -48l-383.982 0.0253906c-13.2393 0 -25.2422 5.38477 -33.9326 14.0762
c-8.66211 8.66992 -14.0508 20.6719 -14.0508 33.9023l-0.0253906 383.983c0.00878906 26.5254 21.4824 48.0127 48.0088 48.0127l383.982 -0.0302734h0.09375c13.2227 0 25.2031 -5.3584 33.8564 -13.998c8.69141 -8.69141 14.0498 -20.7197 14.0283 -33.9844
l0.0214844 -383.975c0 -26.5303 -21.5078 -47.9873 -48 -48.0127zM440.405 220.155c6.04199 -0.835938 10.9863 -6.51465 10.9912 -12.5947v-31.0996c0 -6.06738 -4.94531 -11.7637 -10.9873 -12.5996l-41.8682 -5.67871c-3.64355 -15.4033 -9.70215 -29.8965 -17.7832 -43
l25.5566 -33.6465c3.67773 -4.84668 3.19141 -12.373 -1.12207 -16.7129l-21.9688 -21.9561c-2.37207 -2.37695 -5.70898 -3.58398 -9.04102 -3.58398c-2.73535 0 -5.46191 0.810547 -7.6416 2.4873l-10.9102 8.26074v-0.120117l-22.7881 17.3398
c-13.082 -8.03809 -27.5498 -14.1055 -42.9316 -17.749l-5.7168 -41.8643c-0.810547 -6.0459 -6.48535 -11.0342 -12.5693 -11.0342h-0.163086h-30.9033h-0.162109c-6.08398 0 -11.7627 5.00977 -12.5732 11.0342l-5.71777 41.8643
c-15.3604 3.66504 -29.8447 9.71094 -42.9102 17.7705l-33.5488 -25.502c-2.17578 -1.68066 -4.85059 -2.50879 -7.55176 -2.50879c-0.349609 0 -0.708008 0.0175781 -1.05371 0.046875c-3.05469 0.158203 -6.0625 1.38281 -8.23926 3.55859l-21.9561 21.9775
c-4.31348 4.31836 -4.82129 11.8447 -1.13867 16.6914l25.5488 33.6465c-8.07715 13.1035 -14.1445 27.5967 -17.8008 43l-41.8516 5.67871c-6.04199 0.875 -11.0088 6.53223 -11.0088 12.6162v31.0996c0 6.06738 4.9668 11.7471 11.0088 12.5781l41.8516 5.70117
c3.66113 15.4492 9.72363 29.917 17.8008 43.0244l-25.5488 33.626c-3.68262 4.88086 -3.1748 12.373 1.11719 16.6865l21.9736 21.9609c2.38086 2.39355 5.73438 3.62207 9.08398 3.62207c2.70898 0 5.41406 -0.806641 7.57324 -2.46191l10.9102 -8.29883v0.0986328
l22.8047 -17.3232c13.0908 8.07715 27.5332 14.123 42.9316 17.7246l5.7168 41.8857c0.810547 6.06738 6.49023 10.9902 12.5742 10.9902h0.162109h30.9033h0.162109c6.08008 0 11.7588 -4.94434 12.5693 -10.9902l5.71777 -41.8857
c15.3857 -3.61816 29.832 -9.64355 42.8926 -17.7246l33.5703 25.5234c2.17188 1.62988 4.86816 2.44043 7.59473 2.44043c0.333008 0 0.673828 -0.0126953 1.00684 -0.0380859c3.07617 -0.183594 6.04199 -1.38281 8.24316 -3.5625l21.9521 -21.9609
c4.33496 -4.31348 4.82129 -11.8184 1.14355 -16.6865l-25.5742 -33.626c8.09766 -13.1074 14.1562 -27.5752 17.7998 -43.0244zM435.392 179.324h-0.0078125v25.373l-39.0186 5.30762c-6.5625 0.896484 -11.8955 5.73438 -13.415 12.1865
c-3.2002 13.5674 -8.5293 26.4482 -15.8418 38.2842c-3.47754 5.63672 -3.12793 12.8301 0.878906 18.0947l23.833 31.3389l-17.9873 17.9932l-31.3643 -23.8428c-2.85059 -2.16699 -6.26367 -3.26367 -9.69043 -3.26367c-2.90527 0 -5.82812 0.792969 -8.41309 2.39355
c-11.7383 7.26562 -24.5723 12.5654 -38.1406 15.7607c-6.4375 1.51953 -11.2803 6.84863 -12.1807 13.4102l-5.3252 39.04h-25.4502l-5.3252 -39.04c-0.900391 -6.57031 -5.75586 -11.9043 -12.2109 -13.4141c-13.5039 -3.16211 -26.3428 -8.46484 -38.165 -15.7607
c-2.58984 -1.59668 -5.5 -2.38965 -8.40625 -2.38965c-3.42578 0 -6.83496 1.09668 -9.67676 3.25977l-21.4824 16.3115c-0.460938 0.28125 -0.904297 0.588867 -1.34375 0.916992l-8.58887 6.54102l-17.9111 -17.9072l23.8252 -31.3477
c4.00195 -5.26465 4.35156 -12.4502 0.882812 -18.0771c-7.30078 -11.8486 -12.6338 -24.7383 -15.8555 -38.3232c-1.52734 -6.43457 -6.85645 -11.2686 -13.4102 -12.165l-39.0186 -5.31152v-25.3613l39.0107 -5.28613c6.55762 -0.887695 11.8906 -5.71777 13.418 -12.1602
c3.23047 -13.585 8.56348 -26.4834 15.8555 -38.3105c3.47266 -5.62793 3.12305 -12.8086 -0.878906 -18.0732l-23.8252 -31.3604l17.958 -17.9834l31.3779 23.8506c2.84961 2.16699 6.25879 3.26367 9.68945 3.26367c2.90137 0 5.81543 -0.789062 8.39648 -2.38477
c11.7588 -7.25391 24.6191 -12.5781 38.2207 -15.8213c6.42969 -1.53613 11.2471 -6.85645 12.1387 -13.4014l5.3418 -39.0615h25.4336l5.33398 39.0615c0.891602 6.55762 5.73438 11.8828 12.168 13.4102c13.5039 3.19531 26.377 8.5166 38.2383 15.8076
c2.58105 1.58301 5.48242 2.36816 8.375 2.36816c3.43066 0 6.83984 -1.10059 9.68945 -3.26758l21.3418 -16.2441c0.482422 -0.290039 0.964844 -0.609375 1.42578 -0.959961l8.65625 -6.55762l17.8994 17.8945l-23.8379 31.377
c-3.99414 5.26562 -4.34375 12.4463 -0.878906 18.0742c7.2959 11.8438 12.625 24.7295 15.8291 38.293c1.52344 6.44238 6.86523 11.2852 13.4229 12.1768zM263.748 268.151c38.5537 -3.97168 68.6426 -36.54 68.6426 -76.1475
c0 -42.2314 -34.2656 -76.4844 -76.459 -76.4844c-2.58594 0 -5.16699 0.145508 -7.68848 0.388672c-38.5361 3.95117 -68.6289 36.5352 -68.6289 76.0957c0 42.2744 34.2393 76.4717 76.458 76.4717c2.60742 0 5.14551 -0.119141 7.67578 -0.324219zM255.932 131.52
c-1.93262 0 -4.00195 0.107422 -6.05859 0.303711c-30.9336 3.16992 -54.2588 29.043 -54.2588 60.1768c0 33.3438 27.123 60.4717 60.458 60.4717c2.01855 0 4.10449 -0.0898438 6.0332 -0.243164c30.9463 -3.1875 54.2852 -29.0732 54.2852 -60.2285
c0 -33.3438 -27.1191 -60.4805 -60.459 -60.4805z" />
    <glyph glyph-name="uniF178" unicode="&#xf178;" 
d="M255.991 448c141.174 0 256.009 -111.897 256.009 -249.464c0 -137.584 -114.853 -249.481 -256.009 -249.481c-45.498 0 -90.2041 11.7881 -129.28 34.0967c-3.67676 2.11133 -6.29785 5.48926 -7.38867 9.51855c-1.05566 4.04688 -0.475586 8.23438 1.68848 11.8232
c2.12891 3.58887 5.6123 6.14062 9.74707 7.21289c4.13477 1.03809 8.46289 0.458008 12.1396 -1.65332c34.1504 -19.4941 73.2783 -29.8037 113.094 -29.8037c123.526 0 224.006 97.9092 224.006 218.287c0 120.359 -100.479 218.27 -224.006 218.27
c-52.2012 0 -101.622 -17.2764 -141.49 -49.0518l23.6816 -0.474609c8.81445 -0.158203 15.8516 -7.30176 15.6758 -15.8877c-0.175781 -8.42676 -7.35449 -15.2891 -15.9922 -15.2891h-0.15918l-49.6318 0.985352c-17.0137 0.316406 -30.5957 14.1104 -30.2441 30.7012
l1.02051 48.208c0.158203 8.33887 7.19629 15.0596 15.958 15.2715c9.16602 -0.15918 16.2041 -7.31934 16.0273 -15.8877l-0.544922 -26.7607c46.2188 38.4082 104.297 59.3799 165.699 59.3799zM244.309 366.382c8.83203 0 15.9756 -6.98438 15.9756 -15.5703v-164.82
c0 -1.68848 1.40723 -3.04297 3.13184 -3.04297h103.839c8.83203 0 16.0107 -7.00293 16.0107 -15.5889c0 -8.62109 -7.17871 -15.6055 -16.0107 -15.6055h-103.839c-19.3535 0 -35.1172 15.3594 -35.1172 34.2197v164.82c0 8.60352 7.17773 15.5879 16.0098 15.5879z
M62.0361 89.4014c9.85254 -16.5908 21.834 -31.8096 35.5928 -45.2344c6.22754 -6.08691 6.22754 -15.9746 0 -22.0625c-3.04395 -2.93848 -7.05566 -4.55664 -11.3311 -4.55664s-8.28613 1.61816 -11.3125 4.55664c-15.7295 15.3594 -29.3994 32.7246 -40.6592 51.6904
c-2.12891 3.58984 -2.70996 7.79492 -1.61914 11.8232c1.12598 4.01172 3.74707 7.38965 7.45996 9.4834c3.69434 2.07617 8.04004 2.65625 12.1396 1.56543c4.15234 -1.07227 7.60059 -3.65918 9.72949 -7.26562zM20.0391 243.999
c-4.13379 1.09082 -7.58301 3.65918 -9.72949 7.26562c-2.12793 3.60742 -2.69141 7.79492 -1.60059 11.8232c5.73535 20.9727 14.3564 41.2227 25.6348 60.1709c4.39844 7.44238 14.2158 10.0117 21.834 5.70117c3.71191 -2.09375 6.36816 -5.4541 7.45898 -9.4834
c1.1084 -4.0293 0.52832 -8.2168 -1.61816 -11.8408c-9.83496 -16.5732 -17.3828 -34.2725 -22.3975 -52.5879c-1.86426 -6.80859 -8.21582 -11.5771 -15.4473 -11.5771c-1.38965 0 -2.7793 0.175781 -4.13477 0.52832zM39.6211 142.007
c2.28711 -8.28613 -2.79688 -16.8545 -11.3301 -19.0713c-1.33691 -0.352539 -2.74512 -0.545898 -4.13477 -0.545898c-7.23047 0 -13.5996 4.75 -15.4473 11.5771c-5.77051 21.0068 -8.70898 42.7529 -8.70898 64.5693c0 8.60352 7.17871 15.5879 15.9932 15.5879
c8.83203 0 16.0098 -7.00195 16.0098 -15.5879c0 -19.0898 2.56934 -38.0908 7.61816 -56.5293z" />
    <glyph glyph-name="uniF141" unicode="&#xf141;" 
d="M480.564 -63.9932h-449.139c-17.2373 0 -31.1768 14.0361 -31.1768 31.3477c0 17.292 13.9395 31.3477 31.1768 31.3477h449.143c17.2139 0 31.1924 -14.0557 31.1924 -31.3477c0 -17.3115 -13.9785 -31.3477 -31.1963 -31.3477zM82.5381 38.8818
c-17.2168 0 -31.1992 14.04 -31.1992 31.3477v121.091c0 17.3115 13.9824 31.3477 31.1992 31.3477c17.2207 0 31.2002 -14.0361 31.2002 -31.3477v-121.087c0 -17.3115 -13.9795 -31.3516 -31.2002 -31.3516zM198.359 38.8818c-17.2207 0 -31.2031 14.04 -31.2031 31.3477
v121.091c0 17.3115 13.9824 31.3477 31.2031 31.3477c17.2178 0 31.1963 -14.0361 31.1963 -31.3477v-121.087c0 -17.3115 -13.9785 -31.3516 -31.1963 -31.3516zM314.187 38.8818c-17.2236 0 -31.1992 14.04 -31.1992 31.3477v121.091
c0 17.3115 13.9756 31.3477 31.1992 31.3477c17.2178 0 31.1963 -14.0361 31.1963 -31.3477v-121.087c0 -17.3115 -13.9785 -31.3516 -31.1963 -31.3516zM430.017 38.8818c-17.2207 0 -31.1992 14.04 -31.1992 31.3477v121.091c0 17.3115 13.9785 31.3477 31.1992 31.3477
c17.2373 0 31.1992 -14.0361 31.1992 -31.3477v-121.087c0 -17.3115 -13.9619 -31.3516 -31.1992 -31.3516zM485.954 262.867h-459.918c-7.59473 0 -14.5635 6.78711 -20.0527 14.582c-8.22754 11.6123 -7.66211 31.2871 -0.28125 40.5996
c4.4082 5.56348 9.74902 11.1689 15.5195 14.7471l207.395 108.175c15.1055 9.36719 39.6299 9.36719 54.7549 0l207.375 -108.175c5.77734 -3.57812 11.1182 -9.17676 15.5381 -14.7471c7.38184 -9.3125 7.94727 -28.9814 -0.280273 -40.5996
c-5.49023 -7.79492 -12.4609 -14.582 -20.0498 -14.582z" />
    <glyph glyph-name="uniF107" unicode="&#xf107;" 
d="M0 234.905v150.784h206.976v-150.784h-206.976zM277.76 234.905v150.784h234.24v-150.784h-234.24zM0 1.68945v173.21h206.976v-173.21h-206.976zM277.76 1.68945v173.21h234.24v-173.21h-234.24z" />
    <glyph glyph-name="uniF11C" unicode="&#xf11c;" 
d="M495.692 -29.9775l-10.6748 -10.957c-8.95996 -9.21582 -23.7822 -9.36914 -32.9219 -0.333008l-122.598 121.217c-9.13965 9.03613 -25.959 11.5703 -37.376 5.65723c0 0 -51.9941 -27.0596 -95.4883 -27.0596c-108.672 0 -196.634 87.1943 -196.634 194.663
c0 107.725 87.9619 194.79 196.634 194.79c108.621 0 196.838 -87.0654 196.838 -194.79c0 -42.1377 -25.9326 -92.1094 -25.9326 -92.1094c-5.91309 -11.3916 -3.27637 -28.1338 5.8623 -37.1963l121.959 -120.679c9.16406 -9.0625 9.31836 -24.0127 0.332031 -33.2031z
M60.2627 253.21c0 -74.5479 60.9023 -134.938 136.346 -134.938c75.2383 0 136.371 60.3643 136.371 134.938c0 74.5723 -61.1328 134.988 -136.371 134.988c-75.4434 0 -136.346 -60.3906 -136.346 -134.988z" />
    <glyph glyph-name="uniF16F" unicode="&#xf16f;" 
d="M0 232.5l60.2432 56.9033l94.4434 -96.1777l228.014 254.774l53.0342 -52.5693l-281.872 -383.461zM502.699 100.198l-3.7627 -1.41602c-7.39746 -2.81152 -12.9355 -11.499 -12.3018 -19.3623l-0.359375 -14.6699c-1.07812 -7.82031 3.82617 -16.9102 11.0977 -20.165
l3.33984 -1.56445c7.14453 -3.27637 10.3779 -11.8369 7.10156 -19.0234l-2.26172 -5.00977c-3.31836 -7.20801 -11.8369 -10.4209 -19.0449 -7.12402l-3.23438 1.4375c-7.20801 3.31836 -17.2695 1.03613 -22.4062 -4.98828l-10.9492 -10.125
c-6.38379 -4.81934 -9.2793 -14.6699 -6.48926 -22.1318l1.24707 -3.2334c2.74805 -7.41992 -1.03516 -15.7266 -8.3916 -18.5166l-5.24219 -1.94531c-7.39844 -2.76855 -15.7471 0.994141 -18.4951 8.43457l-1.22656 3.25488
c-2.76855 7.37695 -11.499 12.9785 -19.4043 12.4717l-14.8594 0.443359c-7.82129 1.16309 -16.9111 -3.7627 -20.1445 -10.9707l-1.47949 -3.21289c-3.25586 -7.20801 -11.8164 -10.4209 -19.0244 -7.14453l-5.07324 2.30469
c-7.20801 3.27637 -10.3789 11.7949 -7.10254 19.0029l1.50098 3.33984c3.25586 7.20801 1.03613 17.3535 -4.90332 22.4688l-9.85059 10.9072c-4.77734 6.3418 -14.6484 9.2793 -22.0469 6.48926l-3.74121 -1.39453c-7.44043 -2.76953 -15.748 1.01465 -18.5381 8.3916
l-1.94434 5.2627c-2.79004 7.35645 0.97168 15.7061 8.41309 18.4746l3.88867 1.45898c7.39844 2.76855 11.8379 25.957 13.042 33.7354c1.1416 7.82129 -3.69922 16.8467 -10.9277 20.1025l-4.0166 1.88086c-7.18652 3.23438 -10.3994 11.7949 -7.12305 19.0029
l2.3252 5.03125c3.25488 7.22852 11.8154 10.4629 19.0449 7.18652l4.10059 -1.90234c7.20801 -3.25488 17.291 -1.09961 22.3848 4.79785c5.11523 5.94043 10.4209 9.61816 10.4209 9.61816c6.3418 4.75586 9.2373 14.7119 6.51074 22.0674l-1.64844 4.35449
c-2.79004 7.39844 0.97168 15.7695 8.41211 18.5381l5.2002 1.92383c7.41992 2.79004 15.748 -1.01465 18.4961 -8.41309l1.64844 -4.35449c2.72656 -7.39844 25.8516 -11.6465 33.5879 -12.7881c7.75781 -1.09961 16.7627 3.91016 20.0391 11.0977l1.90234 4.12109
c3.25488 7.25098 11.8369 10.4209 18.9814 7.14453l5.13672 -2.30371c7.16504 -3.29785 10.3359 -11.8584 7.08105 -19.0664l-1.77539 -4.01562c-3.29785 -7.20801 -1.07812 -17.2275 4.94629 -22.3223c5.98145 -5.09375 9.76562 -10.5264 9.76562 -10.5264
c4.81934 -6.32031 14.7754 -9.15234 22.1943 -6.38379l3.88965 1.4375c7.37695 2.76953 15.7266 -1.01465 18.5166 -8.41309l1.92383 -5.17871c2.79004 -7.41895 -1.01465 -15.7471 -8.37109 -18.5166zM400.181 43.7188
c-17.4805 -6.57422 -37.0117 2.26172 -43.5439 19.8057c-6.57324 17.4805 2.30469 36.9912 19.8281 43.5654c17.4385 6.50977 36.9482 -2.34668 43.501 -19.8281c6.57422 -17.5439 -2.30371 -36.9912 -19.7852 -43.543z" />
    <glyph glyph-name="uniF127" unicode="&#xf127;" 
d="M507.03 372.798c0 -41.5205 -113.534 -75.21 -253.529 -75.21c-139.96 0.00683594 -253.501 33.6895 -253.501 75.21c0 41.4922 113.541 75.2021 253.508 75.2021c139.995 0 253.522 -33.71 253.522 -75.2021zM46.2031 134.595l14.5605 -84.6914
c46.1484 -13.3672 120.799 -24.6787 191.837 -24.6787c75.3184 0 154.542 12.3906 201.113 27.2109l13.4414 85.2988c-45.1309 -20.3633 -124.266 -34.0371 -214.555 -34.0371c-85.0947 -0.00683594 -160.222 12.3291 -206.397 30.8975zM495.705 32.7266l8.31445 52.7773
c2.7168 1.11328 5.43457 2.22559 7.98047 3.37207l-16.2949 -103.479c-56.498 -17.9814 -152.604 -33.0068 -243.972 -33.0068c-86.1729 0 -176.735 13.7148 -232.714 29.9287l-17.668 102.748c2.79199 -1.12012 5.74121 -2.21191 8.7041 -3.29785l8.96387 -52.1143
c55.9785 -16.2139 146.541 -29.9355 232.714 -29.9355c91.3682 0 187.474 15.0195 243.972 33.0068zM252.601 259.57c-111.732 0 -206.397 21.2041 -240.579 49.9854l26.4941 -135.612c45.2207 -20.0635 124.103 -33.4092 214.085 -33.4092
c95.6895 0 178.981 15.0801 222.385 37.3281l27.7031 141.782c-21.3467 -33.9209 -125.092 -60.0742 -250.088 -60.0742z" />
    <glyph glyph-name="uniF180" unicode="&#xf180;" 
d="M482.791 350.947c-6.42871 30.1602 -39.5029 33.1475 -77.8066 36.5996c-46.6045 4.20605 -104.587 9.43652 -151.057 55.7402c-3.03906 3.01758 -7.16309 4.71289 -11.4521 4.71289h-0.433594c-4.29004 0 -8.40332 -1.69531 -11.4316 -4.71289
c-46.4795 -46.3037 -104.432 -51.5234 -151.005 -55.7402c-38.2832 -3.45215 -71.3369 -6.43945 -77.7656 -36.5996c-14.9355 -70.1172 61.9414 -318.226 206.208 -405.428c10.3145 -6.24316 22.1699 -9.53027 34.2627 -9.53027c12.1133 0 23.9473 3.28711 34.2627 9.53027
c144.276 87.2021 221.153 335.311 206.218 405.428zM268.181 -40.8174c-7.9375 -4.78516 -16.9092 -7.18262 -25.8701 -7.18262s-17.9326 2.39746 -25.8604 7.18262c-140.162 84.7227 -212.119 326.02 -198.817 388.458c9.34375 43.9053 136.576 -3.14258 224.409 84.3594
h0.433594c87.833 -87.502 215.169 -40.4541 224.533 -84.3594c13.292 -62.4385 -58.6553 -303.735 -198.828 -388.458z" />
    <glyph glyph-name="uniF17F" unicode="&#xf17f;" 
d="M405.145 445.677c-3.14941 3.10742 -8.25977 3.09766 -11.3984 -0.0302734c-3.13867 -3.12891 -3.12793 -8.1875 0.03125 -11.3057c65.8379 -64.9492 102.106 -151.291 102.106 -243.146c0 -90.6875 -35.5361 -176.286 -100.042 -241.029
c-3.13867 -3.13867 -3.10742 -8.19727 0.0625 -11.2949c1.56836 -1.53809 3.62305 -2.3125 5.66797 -2.3125c2.08496 0 4.16016 0.794922 5.74023 2.37402c67.5205 67.748 104.708 157.321 104.708 252.253c-0.0205078 96.1494 -37.9727 186.518 -106.876 254.492z
M293.498 346.761c-3.13867 -3.12891 -3.12891 -8.1875 0.0302734 -11.3057c39.0566 -38.5293 60.5723 -89.7686 60.5723 -144.261c0 -53.293 -20.8135 -103.769 -58.6104 -142.113c-3.11816 -3.15918 -3.05566 -8.21777 0.133789 -11.3047
c1.56934 -1.51758 3.61426 -2.28125 5.6377 -2.28125c2.0957 0 4.18066 0.804688 5.77148 2.40527c40.749 41.3486 63.2041 95.7783 63.2041 153.284c0 58.7656 -23.208 114.031 -65.3311 155.586c-3.14941 3.12891 -8.26953 3.11816 -11.4082 -0.00976562zM256.237 197.637
h-28.8662l-22.8887 18.7178c11.2734 7.84668 18.6758 20.8037 18.6758 35.4541c0 23.8799 -19.5947 43.3096 -43.6816 43.3096c-24.0967 0 -43.6924 -19.4297 -43.6924 -43.3096c0 -3.12891 0.361328 -6.16406 1.00195 -9.10645l-41.0186 3.5
c-7.91895 0.826172 -15.8164 -2.38477 -21.0098 -8.73438l-33.709 -41.0391c-8.40332 -10.252 -6.84473 -25.377 3.49023 -33.7285c4.29492 -3.46973 9.71484 -5.37891 15.2695 -5.37891c7.30957 0 14.1543 3.2207 18.7588 8.82715l25.6143 31.21l11.5527 -0.991211
l-18.5107 -35.0713c-4.43945 -3.30371 -7.54688 -7.98047 -8.89941 -13.4014l-11.832 -47.6152h-52.3027c-13.3389 0.0107422 -24.1895 -10.7471 -24.1895 -23.9629c0 -13.2148 10.8506 -23.9727 24.1895 -23.9727h71.2373c11.1611 0 20.8135 7.50586 23.4883 18.2432
l9.07422 36.4756l53.3867 -91.4316c4.31543 -7.37109 12.3379 -11.9551 20.9482 -11.9551c4.2334 0 8.41406 1.10449 12.1104 3.2207c5.58496 3.21094 9.59082 8.38379 11.2432 14.5674c1.67285 6.18457 0.794922 12.6475 -2.43652 18.1914l-57.248 98.0293l16.5605 34.4619
l20.7617 -16.9727c4.32617 -3.53125 9.78711 -5.47266 15.373 -5.47266h37.5596c13.3389 0 24.1895 10.7578 24.1895 23.9736c0 13.2148 -10.8613 23.9619 -24.2002 23.9619zM179.477 279.126c15.1973 0 27.5654 -12.2646 27.5654 -27.3174
s-12.3682 -27.3184 -27.5654 -27.3184c-15.207 0 -27.5654 12.2656 -27.5654 27.3184s12.3584 27.3174 27.5654 27.3174zM256.237 165.673h-37.5596c-1.86816 0 -3.67578 0.650391 -5.12109 1.82812l-28.7109 23.4766c-1.93066 1.55957 -4.4502 2.17871 -6.88672 1.63184
c-2.41602 -0.526367 -4.45996 -2.1377 -5.52344 -4.35742l-22.8271 -47.5117c-1.14551 -2.375 -1.03223 -5.16211 0.299805 -7.44434l59.3848 -101.673c1.07422 -1.8584 1.37305 -4.00586 0.805664 -6.07031c-0.557617 -2.05469 -1.88965 -3.7793 -3.74805 -4.85254
c-3.74805 -2.14746 -8.86816 -0.743164 -11.0156 2.91113l-63.4219 108.58c-1.45605 2.48828 -4.11914 3.99609 -6.97949 3.99609c-0.371094 0 -0.753906 -0.03125 -1.13574 -0.0830078c-3.24121 -0.454102 -5.89453 -2.8291 -6.67969 -5.99805l-13.8555 -55.71
c-0.887695 -3.59277 -4.1084 -6.09082 -7.83594 -6.09082h-71.2373c-4.45996 0 -8.0625 3.59277 -8.0625 7.99023c0 4.39844 3.61328 7.98047 8.0625 7.98047h58.6211c3.70703 0 6.94824 2.50879 7.82617 6.08105l13.3486 53.707
c0.516602 2.06445 1.80762 3.80957 3.63477 4.91406c1.26953 0.753906 2.29199 1.84863 2.96289 3.12891l25.0674 47.4912c1.24902 2.36426 1.22852 5.20312 -0.0722656 7.53711c-1.30078 2.35352 -3.68555 3.90234 -6.37012 4.11914l-27.876 2.37402
c-2.71484 0.258789 -5.26465 -0.867188 -6.94824 -2.91113l-28.3086 -34.4824c-1.52832 -1.87988 -3.82031 -2.95312 -6.25684 -2.95312c-1.30078 0 -3.24121 0.30957 -5.0791 1.7959c-3.44824 2.78809 -3.97461 7.82617 -1.16699 11.2432l33.709 41.0391
c1.74512 2.11621 4.30469 3.17969 6.94824 2.92188l47.6777 -4.07812c11.7998 -13.2148 28.876 -20.1836 47.2637 -18.0469l30.209 -24.7061c1.44531 -1.16602 3.25195 -1.82715 5.13086 -1.82715h31.7578c4.44922 0 8.06348 -3.58203 8.06348 -7.98047
s-3.64453 -7.9707 -8.09473 -7.9707z" />
    <glyph glyph-name="uniF147" unicode="&#xf147;" 
d="M534.481 -183.203c0 -10.1465 -10.2402 -20.4336 -20.4805 -20.3867h-112.64c-10.1934 0 -20.4795 10.2402 -20.4795 20.4336v158.767h-158.721c-10.1934 0 -20.4336 10.1934 -20.4336 20.4795v112.594c0 10.2402 10.1943 20.4805 20.4336 20.4805h158.721v158.72
c0 10.2402 10.2393 20.4795 20.4795 20.4795h112.64c10.1943 0 20.4805 -10.2393 20.4805 -20.4795v-158.767h158.72c10.1934 0 20.4336 -10.1934 20.4336 -20.4805v-112.593c0 -10.2402 -10.1934 -20.4805 -20.4336 -20.4805h-158.72v-158.767z" />
    <glyph glyph-name="uniF143" unicode="&#xf143;" 
d="M284.937 233.714c1.24902 -2.0459 2.18359 -4.50195 2.81152 -7.37598c0.605469 -2.86523 0.908203 -6.04883 0.908203 -9.55859c0 -3.56738 -0.291016 -6.78125 -0.873047 -9.64746c-0.579102 -2.86621 -1.49121 -5.30664 -2.74707 -7.32129
c-1.25684 -2.01562 -2.8584 -3.56738 -4.82031 -4.64746c-1.96875 -1.08105 -4.29492 -1.625 -6.99609 -1.625c-2.64355 0 -4.93848 0.55957 -6.90039 1.66699c-1.96094 1.11133 -3.57031 2.68164 -4.82324 4.69727c-1.25293 2.01465 -2.1875 4.45898 -2.79297 7.3252
c-0.613281 2.8584 -0.916016 6.0459 -0.916016 9.55176c0 3.50977 0.302734 6.70898 0.916016 9.6084c0.605469 2.89355 1.54004 5.34863 2.79297 7.36816c1.25293 2.01855 2.8623 3.57812 4.82324 4.69336c1.96191 1.11133 4.26465 1.66992 6.90039 1.66992
c2.70117 0 5.01172 -0.5625 6.94238 -1.66992c1.93164 -1.11523 3.52148 -2.68945 4.77441 -4.73535zM512 222.89c0 -35.5654 -18.9805 -67.707 -49.3398 -90.2432l7.57031 -51.7949l0.96582 -6.06152c0.0380859 -0.161133 0.0576172 -0.731445 0.0732422 -0.880859
l0.0341797 -0.981445h-0.0341797s0.0263672 0.486328 0 0.322266c-0.0888672 -0.65918 -0.326172 -0.483398 -0.828125 -0.992188c-0.597656 -0.617188 -1.41406 -0.931641 -2.21484 -0.931641c-0.0839844 0 -0.152344 0.0537109 -0.233398 0.0537109
c-0.25293 0.0195312 -0.520508 0.0878906 -0.758789 0.176758l-0.0107422 -0.0078125l-0.0957031 0.0263672c-0.0078125 0 -0.0351562 0.0078125 -0.0351562 0.0078125l-76.96 30.7197c-10.9727 -1.93848 -22.3398 -3.01562 -34.041 -3.01562
c-78.96 0 -144.177 46.5166 -154.449 106.891c-14.4668 -3.5166 -29.8223 -5.48633 -45.7383 -5.48633c-11.6973 0 -23.0762 0.922852 -34.041 2.86621l-76.9639 -31.0146h-0.0302734l-0.0966797 0.237305l-0.0107422 0.291016
c-0.238281 -0.0878906 -0.501953 -0.145508 -0.762695 -0.168945c-0.0800781 0 -0.149414 -0.0302734 -0.229492 -0.0302734c-0.800781 0 -1.61328 0.352539 -2.21484 0.969727c-0.501953 0.512695 -0.743164 1.22168 -0.824219 1.88086
c-0.0263672 0.165039 0 0.643555 0 0.643555h-0.0380859l0.0380859 0.0078125c0.0117188 0.165039 0.03125 0.168945 0.0693359 0.333008l0.96582 5.85449l7.57031 51.6924c-30.3516 22.54 -49.3359 54.585 -49.3359 90.1475c0 68.2705 69.8027 123.599 155.904 123.599
c64.0947 0 119.124 -30.6738 143.073 -74.5117c-2.20605 0.498047 -4.52051 0.773438 -6.98438 0.773438c-4.24121 0 -8.11816 -0.765625 -11.6201 -2.2832c-3.50977 -1.5166 -6.50977 -3.70117 -9.01855 -6.53223c-2.50586 -2.83496 -4.45215 -6.26758 -5.83594 -10.3027
c-1.37891 -4.02637 -2.07227 -8.53613 -2.07227 -13.501c0 -4.96582 0.673828 -9.46777 2.02637 -13.502c1.34863 -4.02637 3.26465 -7.4668 5.73926 -10.3027c2.47559 -2.83105 5.46387 -5.03027 8.96973 -6.57812c3.50586 -1.54395 7.41699 -2.31836 11.7275 -2.31836
c4.43652 0 8.42871 0.766602 11.958 2.31836c3.52832 1.55176 6.54395 3.74707 9.01855 6.57812c2.4707 2.83594 4.36426 6.26855 5.68945 10.3027c1.31836 4.02637 1.97656 8.52832 1.97656 13.502c0 0.536133 -0.0458984 1.0459 -0.0605469 1.57422
c11.4404 2.12305 23.3555 3.27246 35.6045 3.27246c86.1016 0 155.904 -55.3398 155.904 -123.6zM66.4619 310.463v0l0.00390625 61.3018h-10.5127c-0.391602 0 -1.32617 -3.30273 -2.44824 -4.84375c-1.13086 -1.55469 -2.68652 -2.01074 -4.32617 -3.00684
c-1.64355 -0.996094 -3.86133 -1.73926 -5.9502 -2.23828c-2.0918 -0.498047 -3.58594 -0.773438 -7.41699 -0.831055v-8.2373h19.1562v-42.1445h11.4941zM133.262 328.133c1.31738 4.03418 1.97656 8.53223 1.96484 13.4902c0 5.03418 -0.669922 9.55957 -2.02246 13.6016
c-1.34863 4.03418 -3.26465 7.45508 -5.73926 10.2598c-2.47559 2.80078 -5.48242 4.96582 -9.01953 6.48633c-3.53613 1.52148 -7.45898 2.28418 -11.7656 2.28418c-4.24512 0 -8.12207 -0.766602 -11.624 -2.28418c-3.50586 -1.5166 -6.50977 -3.70117 -9.01953 -6.53223
c-2.50586 -2.83496 -4.45215 -6.26758 -5.83105 -10.3027c-1.38281 -4.02637 -2.07617 -8.53613 -2.07617 -13.5049c0 -4.96191 0.673828 -9.46387 2.02246 -13.498c1.35254 -4.02637 3.26855 -7.4668 5.74316 -10.3027c2.47559 -2.83105 5.46387 -5.03027 8.96973 -6.57812
c3.50488 -1.54785 7.41309 -2.31738 11.7236 -2.31738c4.43652 0 8.4209 0.769531 11.9609 2.31738c3.53613 1.55176 6.54395 3.74707 9.01953 6.57812c2.47461 2.83594 4.37109 6.26855 5.69336 10.3027zM169.908 310.463v0l0.00390625 61.3018h-9.10742
c-0.386719 0 -1.01855 -3.30273 -2.1416 -4.84375c-1.12305 -1.55469 -2.38281 -2.01074 -4.02246 -3.00684c-1.64062 -0.996094 -3.26074 -1.73926 -5.34863 -2.23828c-2.08887 -0.498047 -6.20312 -0.773438 -6.20312 -0.831055v-8.2373h15.3252v-42.1445h11.4941z
M196.728 310.463h15.3252v61.3018h-11.0225c-0.387695 0 -1.25684 -3.30273 -2.37988 -4.84375c-1.12988 -1.55469 -2.62402 -2.01074 -4.26367 -3.00684c-1.64355 -0.996094 -3.73535 -1.73926 -5.82422 -2.23828c-2.0918 -0.498047 -3.3291 -0.773438 -7.16016 -0.831055
v-8.2373h15.3252v-42.1445zM231.209 184.029v65.1318h-8.73145c-0.382812 -3.83105 -1.06152 -4.4248 -2.1875 -5.97266s-2.42871 -3.12988 -4.06836 -4.12207c-1.64453 -0.996094 -3.34863 -1.74414 -5.44141 -2.23828
c-2.08789 -0.498047 -6.39062 -0.773438 -6.39062 -0.834961v-5.98828h15.3262v-45.9756h11.4932zM223.547 352.607h15.3291v-42.1445h11.4941v61.3018h-9.11523c-0.386719 0 -1.01855 -3.30273 -2.1416 -4.84375c-1.12207 -1.55469 -2.38281 -2.01074 -4.02246 -3.00684
s-3.25293 -1.73926 -5.34863 -2.23828c-2.08789 -0.498047 -6.19531 -0.773438 -6.19531 -0.831055v-8.2373zM299.79 203.285c1.31836 4.03418 1.98438 8.53223 1.96191 13.4902c0 5.03418 -0.670898 9.55957 -2.01953 13.5977
c-1.35254 4.03809 -3.26367 7.45898 -5.73926 10.2637c-2.47461 2.80078 -5.48242 4.96582 -9.01855 6.48242c-3.53613 1.52539 -7.45605 2.28418 -11.7666 2.28418c-4.24121 0 -8.11816 -0.766602 -11.6201 -2.28418c-3.50977 -1.5127 -6.5127 -3.69727 -9.01855 -6.52832
c-2.50586 -2.83496 -4.45215 -6.27539 -5.83496 -10.3027c-1.38379 -4.02637 -2.07324 -8.53613 -2.07324 -13.5049c0 -4.96191 0.670898 -9.46777 2.02344 -13.498c1.35156 -4.02637 3.26758 -7.4707 5.74316 -10.3027c2.47852 -2.83105 5.46289 -5.03027 8.96875 -6.57812
c3.50977 -1.54785 7.41699 -2.31836 11.7275 -2.31836c4.43652 0 8.41797 0.770508 11.9619 2.31836c3.53223 1.55176 6.54395 3.74707 9.01855 6.57812c2.47168 2.83203 4.36816 6.26855 5.68555 10.3027zM338.486 184.029v65.1318h-11.1484
c-0.383789 -3.83105 -1.24219 -4.4248 -2.36426 -5.97266c-1.12988 -1.54785 -2.60156 -3.12988 -4.24512 -4.12207c-1.63965 -0.996094 -3.70117 -1.74414 -5.79297 -2.23828c-2.0918 -0.498047 -3.26855 -0.773438 -7.09961 -0.834961v-5.98828h15.3252v-45.9756h15.3252z
M376.8 184.029h0.0117188v65.1318h-9.24121c-0.390625 -3.83105 -1.00391 -4.4248 -2.12988 -5.97266c-1.12695 -1.54785 -2.36035 -3.12988 -4.00391 -4.12207c-1.64355 -0.996094 -3.22266 -1.74414 -5.31445 -2.23828
c-2.0918 -0.498047 -6.1416 -0.773438 -6.1416 -0.834961v-5.98828h15.3252v-45.9756h11.4941zM418.944 184.029v65.1318h-11.1562c-0.383789 -3.83105 -1.24121 -4.4248 -2.36426 -5.97266c-1.12988 -1.54785 -2.60156 -3.12988 -4.24121 -4.12207
c-1.64746 -0.996094 -3.70117 -1.74414 -5.79297 -2.23828c-2.0957 -0.498047 -3.26465 -0.773438 -7.0957 -0.834961v-5.98828h15.3252v-45.9756h15.3252zM470.388 186.404c3.53223 1.54785 6.54004 3.73926 9.00781 6.57031
c2.47461 2.83203 4.36719 6.26855 5.69336 10.3027c1.31738 4.02734 1.97656 8.52832 1.97656 13.498c0 5.03418 -0.669922 9.55957 -2.02637 13.5977c-1.34863 4.03809 -3.26074 7.45898 -5.73926 10.2637c-2.47949 2.80078 -5.48242 4.96582 -9.01953 6.48242
c-3.54004 1.52539 -7.45898 2.28418 -11.7695 2.28418c-4.24121 0 -8.11816 -0.766602 -11.6201 -2.28418c-3.50586 -1.5127 -6.51367 -3.69727 -9.01953 -6.52832c-2.50586 -2.83496 -4.45215 -6.26758 -5.83496 -10.3027
c-1.375 -4.02637 -2.07227 -8.53613 -2.07227 -13.5049c0 -4.96191 0.669922 -9.46387 2.02246 -13.498c1.34863 -4.02637 3.26465 -7.4707 5.73926 -10.3027c2.4834 -2.83105 5.46777 -5.03027 8.97363 -6.57812c3.50488 -1.54785 7.41309 -2.31836 11.7236 -2.31836
c4.43652 0 8.4248 0.770508 11.9648 2.31836zM118.403 358.562c1.25293 -2.0459 2.1875 -4.50195 2.80469 -7.37891c0.609375 -2.8623 0.916016 -6.0498 0.916016 -9.55957c0 -3.56738 -0.294922 -6.78125 -0.870117 -9.64746
c-0.582031 -2.86523 -1.49805 -5.30664 -2.75098 -7.32129c-1.25293 -2.01172 -2.8623 -3.56738 -4.82324 -4.64746c-1.96191 -1.08105 -4.29492 -1.62109 -6.99219 -1.62109c-2.63965 0 -4.93848 0.555664 -6.90039 1.66699
c-1.96191 1.10742 -3.57129 2.68164 -4.82324 4.69727c-1.25293 2.01172 -2.18457 4.45605 -2.79688 7.32129c-0.609375 2.8623 -0.912109 6.0498 -0.912109 9.55176c0 3.50977 0.302734 6.7168 0.912109 9.60938c0.612305 2.89258 1.54395 5.34863 2.79688 7.36719
c1.25195 2.01953 2.86133 3.58203 4.82324 4.69336s4.26465 1.6709 6.90039 1.6709c2.69727 0 5.01074 -0.563477 6.94238 -1.6709c1.93066 -1.11133 3.52051 -2.68945 4.77344 -4.73145zM298.936 363.301c1.93164 -1.11133 3.51758 -2.69336 4.78906 -4.73926
c1.25684 -2.0459 2.18066 -4.50586 2.79297 -7.37207c0.609375 -2.86133 0.916016 -6.04883 0.916016 -9.55859c0 -3.56738 -0.291016 -6.78125 -0.869141 -9.64746c-0.586914 -2.86621 -1.50195 -5.30664 -2.75488 -7.32129
c-1.24902 -2.01172 -2.8623 -3.56738 -4.82422 -4.64746c-1.96484 -1.08105 -4.29102 -1.62109 -6.99219 -1.62109c-2.64355 0 -4.93848 0.555664 -6.90039 1.66699c-1.96094 1.10742 -3.57031 2.68164 -4.82715 4.69727c-1.25293 2.01074 -2.1875 4.45605 -2.79297 7.32129
c-0.613281 2.8623 -0.919922 6.0498 -0.919922 9.55176c0 3.50977 0.306641 6.71582 0.919922 9.6084c0.609375 2.89355 1.54395 5.34863 2.79297 7.36816c1.25684 2.01953 2.86621 3.58203 4.82715 4.69336c1.96191 1.11133 4.26465 1.6709 6.90039 1.6709
c2.70117 0 5.01172 -0.563477 6.94238 -1.6709zM470.238 233.714c1.25684 -2.0459 2.19531 -4.50195 2.8125 -7.37598c0.609375 -2.86523 0.916016 -6.04883 0.916016 -9.55859c0 -3.56738 -0.298828 -6.78125 -0.874023 -9.64746
c-0.582031 -2.86621 -1.49805 -5.30664 -2.74707 -7.32129c-1.25684 -2.01562 -2.86621 -3.56738 -4.82715 -4.64746c-1.96582 -1.08105 -4.29492 -1.625 -6.99609 -1.625c-2.63574 0 -4.93066 0.55957 -6.89648 1.66699c-1.96582 1.11133 -3.5752 2.68164 -4.82422 4.69727
c-1.25195 2.01465 -2.1875 4.45898 -2.79688 7.3252c-0.604492 2.8584 -0.911133 6.0459 -0.911133 9.55176c0 3.50977 0.306641 6.70898 0.911133 9.6084c0.609375 2.89355 1.54492 5.34863 2.79688 7.36816c1.24902 2.01855 2.8584 3.57812 4.82422 4.69336
c1.96582 1.11133 4.26074 1.66992 6.89648 1.66992c2.70117 0 5.01074 -0.5625 6.94629 -1.66992c1.92676 -1.11523 3.52051 -2.68945 4.76953 -4.73535z" />
    <glyph glyph-name="uniF14B" unicode="&#xf14b;" 
d="M360.975 73.4854h-28.1152l0.131836 16.2988c0 7.29395 5.95508 13.209 13.1963 13.209h1.85645c7.28027 0 13.2617 -5.91504 13.2617 -13.209zM255.529 108.443c7.16113 0 13.0234 -4.80078 13.0098 -10.6885v-79.3721c0 -5.84863 -5.84863 -10.623 -13.0098 -10.623
c-7.13477 0 -12.9434 4.80078 -12.9434 10.623v79.3721c0 5.8877 5.82129 10.6885 12.9434 10.6885zM426.7 152.857v-151.013c0 -36.2441 -31.418 -65.8711 -69.8105 -65.8711h-287.053c-38.4199 0.0126953 -69.8369 29.627 -69.8369 65.8711v151.013
c0 36.2051 31.417 65.8457 69.8369 65.8457h287.065c38.3799 0 69.7979 -29.627 69.7979 -65.8457zM89.0137 -14.5732l-0.0400391 159.089l35.6211 -0.0390625v23.5928l-94.915 0.119141v-23.1553l29.627 -0.0927734v-159.514h29.707zM195.639 120.817h-29.627v-84.9688
c0 -12.2412 0.729492 -18.4072 -0.0400391 -20.583c-2.45312 -6.57715 -13.2881 -13.5664 -17.4922 -0.702148c-0.755859 2.25391 -0.0791016 9.04395 -0.0791016 20.7148l-0.172852 85.5391h-29.4678l0.0800781 -84.1729c0 -12.9307 -0.279297 -22.5459 0.0791016 -26.9219
c0.729492 -7.69238 0.517578 -16.71 7.67871 -21.8691c13.2881 -9.58789 38.8701 1.45898 45.2891 15.1982l-0.0791016 -17.5322l23.8311 -0.0400391v135.338zM290.594 23.5547l-0.119141 70.6729c0 26.9609 -20.1455 43.0869 -47.5039 21.2852l0.0927734 52.5957
l-29.6143 -0.0390625l-0.132812 -181.488l24.3359 0.371094l2.25488 11.2988c31.1514 -28.5527 50.7393 -8.97852 50.6865 25.3037zM383.453 32.8906l-22.2803 -0.0791016c0 -0.915039 -0.0791016 -1.93652 -0.0791016 -3.03711v-12.4258
c0 -6.61816 -5.49023 -12.042 -12.1221 -12.042h-4.33594c-6.71094 0 -12.1611 5.42383 -12.1611 12.042v1.40527v13.6201v17.6377h50.8721v19.1641c0 13.9912 -0.27832 28.0088 -1.47168 36.0322c-3.62109 25.3428 -39.2158 29.3877 -57.1855 16.3916
c-5.62305 -4.05859 -9.94629 -9.49512 -12.4521 -16.7764c-2.52051 -7.30762 -3.78027 -17.2539 -3.78027 -29.8789v-42.1729c-0.0263672 -70.0352 85.1143 -60.1289 74.9961 0.119141zM269.309 261.79c-1.55176 3.74023 -2.44043 7.65234 -2.8916 11.6973
c-0.318359 4.08496 -0.516602 12.1348 -0.516602 24.2158v94.876h27.1201v-109.464c0 -5.94141 4.95996 -10.7686 10.875 -10.7686c5.94141 0 10.8213 4.85449 10.8213 10.7686v109.464h26.0332v-140.615h-33.0752l0.59668 11.6172
c-2.30762 -4.70801 -5.05273 -8.23633 -8.28906 -10.6367c-3.36816 -2.37305 -7.14746 -3.55371 -11.418 -3.55371c-4.87988 0 -8.96484 1.12695 -12.1348 3.39551c-3.23535 2.25391 -5.63574 5.30469 -7.12109 9.00391zM169.049 341.202
c0 13.501 1.18066 24.0303 3.42188 31.6699c2.21387 7.5459 6.29883 13.6191 12.1611 18.2607c5.80859 4.58887 13.3008 6.91016 22.4121 6.91016c7.63867 0 14.1641 -1.49902 19.6143 -4.45605c5.54297 -2.99707 9.78711 -6.83008 12.7178 -11.5518
c3.03711 -4.73438 5.04004 -9.66699 6.12695 -14.667c1.12793 -5.02637 1.61816 -12.7051 1.61816 -22.9697v-35.6084c0 -13.0361 -0.490234 -22.6377 -1.48535 -28.7119c-0.994141 -6.12695 -3.11621 -11.8027 -6.53809 -17.0811
c-3.28906 -5.26465 -7.53223 -9.19043 -12.665 -11.71c-5.25195 -2.5332 -11.2197 -3.79297 -17.9961 -3.79297c-7.50586 0 -13.832 1.03418 -19.124 3.24902c-5.25098 2.12207 -9.2832 5.41113 -12.1611 9.73438c-2.93066 4.34961 -4.97266 9.58789 -6.21973 15.7549
c-1.25977 6.18066 -1.88281 15.4238 -1.88281 27.7705v37.1992zM195.016 285.37c0 -8.01074 5.90137 -14.5088 13.1289 -14.5088c7.20117 0 13.1025 6.48535 13.1025 14.5088v74.8369c0 7.9834 -5.90137 14.4814 -13.1025 14.4814
c-7.22754 0 -13.1289 -6.49805 -13.1289 -14.4814v-74.8369zM103.482 247.534l-0.0537109 107.845l-39.2549 92.6211h33.791l19.8936 -68.8291l19.5742 68.6436h34.123l-36.8682 -92.3955v-107.885h-31.2051z" />
    <glyph glyph-name="uniF15F" unicode="&#xf15f;" 
d="M362.737 6.91602l-105.922 128.756l-108.64 -128.756c-15.7061 -18.001 -28.9648 -30.8369 -39.8379 -38.4785c-10.873 -7.64062 -24.7061 -11.5371 -41.4688 -11.5371c-18.5449 0 -34.3408 4.77246 -47.3281 14.4072c-13.0479 9.54395 -19.541 20.5371 -19.541 32.9512
c0 12.6846 9.9668 30.8369 29.9307 54.4258l132.168 156.632l-117.187 130.507c-20.3271 21.5352 -30.5049 40.2607 -30.5049 56.1777c0 12.3828 6.07031 23.166 18.2119 32.2871s27.998 13.7119 47.6299 13.7119c17.0947 0 31.29 -3.98633 42.5254 -11.96
c11.2363 -7.97363 24.3438 -20.5078 39.3242 -37.6035l94.7168 -107.069l92.0283 107.069c15.3125 17.6992 28.6025 30.3848 39.8379 38.0566c11.2354 7.6709 25.2197 11.5068 42.0117 11.5068c19.2695 0 35.2168 -4.5 47.8721 -13.501
c12.6553 -9 18.998 -19.8428 18.998 -32.5283c0 -9.15137 -2.59766 -17.9102 -7.7627 -26.3369s-13.1084 -18.3633 -23.7998 -29.8711l-117.157 -130.477l132.138 -156.632c20.6895 -24.4951 31.0186 -42.9189 31.0186 -55.3018
c0 -12.6855 -6.43359 -23.5889 -19.2695 -32.7402s-28.7227 -13.7119 -47.5996 -13.7119c-16.793 0 -30.958 3.9873 -42.5254 11.96c-11.6289 7.94336 -24.8877 20.6289 -39.8682 38.0557z" />
    <glyph glyph-name="uniF109" unicode="&#xf109;" 
d="M410.188 -64h-308.377c-56.1416 0 -101.812 45.6699 -101.812 101.812v308.352c0 56.167 45.6699 101.837 101.812 101.837h308.403c56.1152 0 101.785 -45.6699 101.785 -101.837v-308.378c0 -56.1152 -45.6699 -101.785 -101.812 -101.785zM101.812 429.491
c-45.9268 0 -83.3027 -37.376 -83.3027 -83.3027v-308.377c0 -45.9268 37.376 -83.3027 83.3027 -83.3027h308.403c45.9258 0 83.3018 37.376 83.3018 83.3027v308.352c0 45.9268 -37.376 83.3027 -83.3018 83.3027h-308.403v0.0253906z" />
    <glyph glyph-name="uniF181" unicode="&#xf181;" 
d="M145.675 301.127h-46.75c-9.80859 0 -17.7881 -7.92773 -17.7881 -17.6748c0 -9.73633 7.96875 -17.6641 17.7881 -17.6641h46.7393c9.80859 0 17.7881 7.92773 17.7881 17.6641c0 9.74707 -7.96875 17.6748 -17.7773 17.6748zM145.675 281.788h-46.75
c-0.90918 0 -1.63281 0.744141 -1.63281 1.66406c0 0.930664 0.723633 1.6748 1.63281 1.6748h46.7393c0.90918 0 1.64355 -0.744141 1.64355 -1.6748c0.00976562 -0.919922 -0.723633 -1.66406 -1.63281 -1.66406zM110.491 227.225h-11.5664
c-9.80859 0 -17.7881 -7.9375 -17.7881 -17.6738c0 -9.7373 7.96875 -17.6748 17.7881 -17.6748h11.5664c9.80859 0 17.7881 7.9375 17.7881 17.6748c0 9.73633 -7.96875 17.6738 -17.7881 17.6738zM110.491 207.876h-11.5664c-0.90918 0 -1.63281 0.744141 -1.63281 1.6748
c0 0.919922 0.723633 1.67383 1.63281 1.67383h11.5664c0.90918 0 1.64355 -0.753906 1.64355 -1.67383c0.00976562 -0.930664 -0.734375 -1.6748 -1.64355 -1.6748zM98.9248 339.689h11.5664c9.80859 0 17.7881 7.92773 17.7881 17.6748
c0 9.73633 -7.96875 17.6748 -17.7881 17.6748h-11.5664c-9.80859 0 -17.7881 -7.93848 -17.7881 -17.6748c0.0107422 -9.74707 7.97949 -17.6748 17.7881 -17.6748zM98.9248 359.039h11.5664c0.90918 0 1.64355 -0.744141 1.64355 -1.66406
c0 -0.930664 -0.734375 -1.6748 -1.64355 -1.6748h-11.5664c-0.90918 0 -1.63281 0.744141 -1.63281 1.6748c0 0.90918 0.723633 1.66406 1.63281 1.66406zM188.093 151.669v229.416c0 36.8994 -29.5088 66.915 -65.7881 66.915s-65.7881 -30.0156 -65.7881 -66.915
v-229.416c-35.1113 -21.416 -56.5166 -58.377 -56.5166 -98.6357c0 -64.5371 54.8633 -117.033 122.305 -117.033c67.4316 0 122.305 52.4961 122.305 117.033c0 40.2588 -21.416 77.2197 -56.5166 98.6357zM122.305 -48c-58.6357 0 -106.16 45.2402 -106.16 101.033
c0 38.7188 22.915 72.3105 56.5166 89.2822v238.77c0 28 22.3359 50.915 49.6543 50.915c27.3076 0 49.6533 -22.915 49.6533 -50.915v-238.78c33.6025 -16.9717 56.5068 -50.5635 56.5068 -89.2812c-0.0107422 -55.7832 -47.5449 -101.023 -106.171 -101.023z" />
    <glyph glyph-name="uniF106" unicode="&#xf106;" 
d="M512 74.3936l-512 0.0126953l97.6133 97.626v139.507c0 87.4756 70.9111 136.461 158.374 136.461c87.4619 0 158.336 -48.9854 158.336 -136.461v-139.494zM256.013 -28.6846c36.3652 0 67.5586 21.8242 81.3828 53.1201l-162.829 0.0507812
c13.8369 -31.3467 45.0557 -53.1709 81.4463 -53.1709z" />
    <glyph glyph-name="uniF13E" unicode="&#xf13e;" 
d="M54.5215 196.105h31.8164v108.576h-0.357422c22.8828 71.9453 85.2939 119.617 164.936 119.617c79.9619 0 142.562 -48.0703 165.195 -120.5v-94.2861c-9.53711 -21.5195 -33.4395 -61.8125 -84.2109 -82.2061c-6.03125 8.35059 -15.8271 13.8271 -26.9092 13.8271
c-18.3516 0 -33.2178 -14.8906 -33.2178 -33.2217c0 -18.3301 14.8662 -33.2002 33.2178 -33.2002c17.0723 0 31.0967 12.8643 32.9619 29.4395c56.4209 21.918 85.2705 65.7129 98.0332 91.9639h11.9648c15.2041 0 27.5479 12.3438 27.5479 27.5713v53.4443
c0 15.2109 -12.3438 27.5508 -27.5713 27.5508h-7.55273c-24.3418 84.8721 -97.7578 143.318 -189.459 143.318c-91.6846 0 -165.097 -58.4463 -189.462 -143.318h-6.95312c-15.207 0 -27.5469 -12.3223 -27.5469 -27.5508v-53.4541
c0 -15.2285 12.3398 -27.5713 27.5674 -27.5713zM304.984 157.486c8.27539 0 16.0664 -2.05957 22.9404 -5.66992c40.1191 18.0957 58.9482 50.4092 66.3848 67.4033v84.3506c-22.9072 58.1631 -78.5264 99.3184 -143.383 99.3184
c-64.2539 0 -119.491 -40.415 -142.77 -97.7363v-0.480469v-108.577v-12.2988c23.2783 -57.3242 78.5156 -97.7363 142.77 -97.7363c3.19434 0 6.33105 0.139648 9.45801 0.347656c-3.14746 6.50586 -4.97168 13.8027 -4.97168 21.5186
c0 27.3193 22.2451 49.5605 49.5713 49.5605zM432.655 78.5957l-52.9326 14.1055c-34.3809 -30.2744 -79 -48.7041 -127.869 -48.8438c-48.8271 0.139648 -93.4678 18.5693 -127.872 48.8438l-52.9531 -14.1055c-56.4785 -15.7295 -74.9736 -39.4717 -70.3467 -70.3467
l11.3613 -72.249h479.659l11.3613 72.249c4.60645 30.875 -13.8682 54.6172 -70.4082 70.3467z" />
    <glyph glyph-name="uniF156" unicode="&#xf156;" 
d="M0 231.492v216.508h216.508v-216.508h-216.508zM0 -50.2783v216.508h216.508v-216.508h-216.508zM295.492 -50.2783v216.508h216.508v-216.508h-216.508zM295.492 231.492v216.508h216.508v-216.508h-216.508z" />
    <glyph glyph-name="uniF163" unicode="&#xf163;" 
d="M512 222.26c0 -42.4844 -22.6748 -80.7578 -58.9355 -107.717l9.0625 -61.7266l1.13867 -6.99707c0.0429688 -0.19043 0.0644531 -0.380859 0.0957031 -0.572266l0.0322266 -0.19043h-0.0322266c0 -0.201172 0.0107422 -0.391602 0 -0.582031
c-0.116211 -0.790039 -0.397461 -1.55762 -0.985352 -2.15625c-0.736328 -0.751953 -1.69434 -1.11719 -2.6582 -1.11719c-0.106445 0 -0.174805 0.0527344 -0.28125 0.0527344c-0.3125 0.03125 -0.609375 0.105469 -0.911133 0.206055l-0.0107422 -0.015625
l-0.0947266 0.0585938c-0.0322266 0 -0.0527344 0 -0.0634766 0.0107422l-91.9336 36.6943c-13.0977 -2.30957 -26.6895 -3.5752 -40.6455 -3.5752c-71.3555 0 -133.283 31.8486 -164.544 78.5645c3.78711 -0.174805 7.57422 -0.456055 11.3398 -0.456055
c110.223 0 199.883 72.3359 199.883 161.266c0 18.6445 -4.13672 36.4834 -11.3877 53.1562c85.9531 -13.0771 150.932 -72.9385 150.932 -144.903zM172.579 180.035c-12.7285 0 -25.5986 1.13379 -38.2949 3.36816l-3.80762 0.667969l-79.3066 -31.6582l8.79785 59.9844
l-6.53613 4.8623c-34.459 25.5977 -53.4316 59.9619 -53.4316 96.752c0 73.8828 77.415 133.988 172.579 133.988c95.1582 0 172.589 -60.1055 172.589 -133.988c0 -73.8711 -77.4307 -133.977 -172.589 -133.977z" />
    <glyph glyph-name="uniF126" unicode="&#xf126;" 
d="M510.409 390.052v-354.734c0 -32.0029 -25.9443 -57.9541 -57.9482 -57.9541h-394.513c-32.0039 0 -57.9482 25.9512 -57.9482 57.9473v354.741c0 32.0039 25.9443 57.9482 57.9482 57.9482h394.513c32.0039 0 57.9482 -25.9443 57.9482 -57.9482zM499.929 180.891
c0 0 -100.49 -142.364 -243.306 -142.364c-146.865 -0.0537109 -244.592 152.32 -244.592 152.32c-14.9082 15.6035 -14.3516 40.3955 1.25293 55.3096c0 0 100.49 142.318 243.339 142.318c146.799 0.119141 244.546 -152.314 244.546 -152.314
c14.9141 -15.6172 14.3574 -40.3555 -1.24023 -55.2695zM254.866 348.139c70.9072 1.18652 129.492 -55.4951 130.572 -126.23c1.28613 -70.9062 -55.4355 -129.465 -126.383 -130.604c-70.8477 -1.15332 -129.392 55.4619 -130.525 126.362
c-1.13379 70.8018 55.4893 129.393 126.336 130.473zM323.42 215.73c0 -36.6895 -29.7422 -66.4326 -66.4326 -66.4326c-36.6895 0 -66.4326 29.7432 -66.4326 66.4326c0 36.6904 29.7432 66.4326 66.4326 66.4326c3.80566 0 7.51074 -0.390625 11.1436 -1.00684
c-0.709961 2.54492 -1.21973 5.17676 -1.21973 7.94727c0 16.3398 13.2441 29.584 29.584 29.584c16.3389 0 29.5898 -13.2441 29.5898 -29.584c0 -13.1914 -8.69629 -24.2344 -20.6221 -28.0527c11.1172 -11.8721 17.957 -27.7803 17.957 -45.3203zM307.452 215.73
c0 -27.8672 -22.5908 -50.457 -50.4648 -50.457c-27.8662 0 -50.457 22.5898 -50.457 50.457s22.5908 50.4648 50.457 50.4648c27.874 0.00585938 50.4648 -22.5908 50.4648 -50.4648z" />
    <glyph glyph-name="uniF153" unicode="&#xf153;" 
d="M431.234 99.3682c-5.41016 0 -10.7939 2.09277 -14.9023 6.20117c-8.2168 8.24219 -8.2168 21.5889 0 29.8057c34.501 34.501 53.5117 80.4082 53.5117 129.275c0 48.8428 -19.0371 94.75 -53.5371 129.276c-8.24316 8.2168 -8.24316 21.5625 0 29.8057
c8.2168 8.24219 21.5879 8.24219 29.8047 0c42.4883 -42.4883 65.8887 -98.9863 65.8887 -159.082c0 -60.1211 -23.4004 -116.618 -65.8887 -159.081c-4.08301 -4.1084 -9.4668 -6.20117 -14.877 -6.20117zM368.179 173.806c-5.81836 0 -11.6113 2.21973 -16.0508 6.63477
c-8.85547 8.87988 -8.88086 23.2471 0 32.127c13.9072 13.9082 21.5625 32.4092 21.5625 52.083c0 19.6748 -7.65527 38.2012 -21.5625 52.083c-8.88086 8.88086 -8.88086 23.2217 -0.0253906 32.0771c8.85449 8.90527 23.2471 8.90527 32.1016 0.0253906
c22.5068 -22.4561 34.8838 -52.3896 34.8838 -84.2109c0 -31.7959 -12.3506 -61.7031 -34.833 -84.1846c-4.43945 -4.38965 -10.2578 -6.63477 -16.0762 -6.63477zM268.07 248.166c6.43066 -12.5039 19.5723 -19.4453 31.9492 -19.3945v-147.47h-300.02v366.698h299.993
v-147.445c-4.28711 0 -10.7686 -1.12207 -16 -3.77637c-17.6836 -9.13574 -24.9561 -30.9023 -15.9229 -48.6123zM183.732 105.569c8.2168 8.24219 8.2168 21.5889 0 29.8057c-34.5264 34.5264 -53.5635 80.4082 -53.5635 129.275
c0 48.8428 19.0371 94.7754 53.5889 129.276c8.24219 8.2168 8.24219 21.5625 0 29.8057c-8.19141 8.2168 -21.5635 8.24219 -29.8057 0c-42.5137 -42.4883 -65.9141 -98.9863 -65.9141 -159.082c0 -60.1211 23.4004 -116.593 65.8887 -159.081
c4.1084 -4.1084 9.49316 -6.20117 14.9023 -6.20117c5.38477 0 10.7686 2.09277 14.9033 6.20117zM247.911 212.567c-13.9082 13.9082 -21.5381 32.4092 -21.5381 52.083c0 19.7002 7.62988 38.2012 21.5381 52.083c8.87988 8.85547 8.87988 23.2471 0 32.1025
c-8.85547 8.87988 -23.2217 8.87988 -32.1025 0c-22.4814 -22.4814 -34.8838 -52.3643 -34.8838 -84.1855c0 -31.7959 12.4023 -61.7285 34.8838 -84.1846c4.41504 -4.44043 10.2324 -6.66016 16.0508 -6.66016s11.6113 2.21973 16.0518 6.63477
c8.87988 8.87988 8.87988 23.2471 0 32.127zM315.789 232.498c-5.66504 -2.88379 5.63965 -3.98145 -19.8779 -3.75195v71.8086c25.5176 0.408203 27.7637 -6.60938 34.3477 -19.4443c9.08398 -17.7354 3.21484 -39.4775 -14.4697 -48.6123z" />
    <glyph glyph-name="uniF182" unicode="&#xf182;" 
d="M260.18 -55.6094v0c11.668 11.2012 11.668 29.3389 0 40.54l-189.546 181.858c-7.02148 6.73926 -10.8867 15.6875 -10.8867 25.2109c0 9.51074 3.86523 18.4775 10.8867 25.2041l189.546 181.872c11.668 11.1875 11.668 29.3389 0 40.5264
c-11.6621 11.1885 -30.5742 11.1885 -42.2549 0l-186.979 -179.407c-16.7754 -16.1035 -28.4619 -37 -30.5488 -59.7021c-2.57227 -27.9629 7.61035 -54.6904 27.9951 -74.2305l189.539 -181.872c11.6748 -11.1875 30.5869 -11.1875 42.249 0z" />
    <glyph glyph-name="uniF16B" unicode="&#xf16b;" 
d="M256 438.69c136.024 0 246.69 -110.666 246.69 -246.69s-110.666 -246.69 -246.69 -246.69s-246.69 110.666 -246.69 246.69s110.666 246.69 246.69 246.69zM256 448c-141.382 0 -256 -114.613 -256 -256c0 -141.382 114.618 -256 256 -256
c141.387 0 256 114.618 256 256c0 141.387 -114.613 256 -256 256zM256.651 132.324c-14.9824 0 -27.9268 12.1904 -27.9268 27.1729v137.533c0 14.9775 12.9443 27.1729 27.9268 27.1729c14.9834 0 27.9277 -12.1953 27.9277 -27.1729v-137.533
c0 -14.9824 -12.9492 -27.1729 -27.9277 -27.1729zM256 59.7969c-16.2207 0 -29.4209 13.2002 -29.4209 29.4219c0 16.2207 13.2002 29.4121 29.4209 29.4121s29.4209 -13.1914 29.4209 -29.4121c0 -16.2217 -13.2002 -29.4219 -29.4209 -29.4219z" />
    <glyph glyph-name="uniF155" unicode="&#xf155;" 
d="M87.8057 191.226h317.895c58.6123 0 106.3 47.6562 106.3 106.237c0 52.2246 -39.001 97.3652 -90.7178 105l-5.84082 0.859375l-3.41504 4.82227c-12.1768 17.1982 -31.9756 27.4697 -52.959 27.4697c-22.082 0 -42.4648 -11.1133 -54.5205 -29.7275l-10.6943 -16.5127
l-11.8965 15.6719c-20.7207 27.2959 -52.1084 42.9541 -86.1094 42.9541c-46.4004 0 -87.5254 -29.5889 -102.342 -73.6162l-2.95215 -8.77539l-9.2334 -0.605469c-45.6035 -2.9834 -81.3193 -41.085 -81.3193 -86.7422c0 -46.8594 36.7041 -85.0186 83.5625 -86.8662z" />
    <glyph glyph-name="uniF137" unicode="&#xf137;" 
d="M256 448c141.388 0 256 -114.612 256 -256c0 -141.402 -114.612 -256 -256 -256s-256 114.598 -256 256c0 141.388 114.612 256 256 256zM321.928 271.962v53.0674h-41.126c-32.9336 0 -61.4854 -32.1201 -61.4854 -67.7793v-20.6758h-38.9121v-53.0527h38.9277v-121.705
h49.5127v121.705h53.0977v53.0527h-53.0977v21.1572c0 8.52344 7.25879 14.2305 11.957 14.2305h41.126z" />
    <glyph glyph-name="uniF149" unicode="&#xf149;" 
d="M4.12207 58.9316l254.412 312.269l249.344 -312.269h-503.756z" />
    </font>
</defs>
</svg>
